<!-- Skype - num-30 -->
<svg width="24" height="24" viewBox="0 0 24 24" fill="none" xmlns="http://www.w3.org/2000/svg">
    <path d="M20.3654 13.5036C20.4577 12.996 20.5072 12.4771 20.5072 11.9583C20.5072 10.8077 20.2821 9.69106 19.8388
        8.64206C19.4113 7.6269 18.797 6.7155 18.0161 5.9327C17.2418 5.15446 16.3239 4.5346 15.3135 4.10766C14.2649 3.66324
        13.1533 3.43765 12.0056 3.43765C11.4656 3.43765 10.9232 3.48953 10.3967 3.59105C9.66807 3.20399 8.85622 3.0011
        8.03163 3C6.68822 3 5.42356 3.52563 4.47395 4.47763C4.00535 4.94498 3.63382 5.50082 3.38083 6.11301C3.12784 6.7252
        2.9984 7.3816 3.00001 8.04424C3.00001 8.90149 3.22054 9.74521 3.63234 10.4897C3.54908 10.9724 3.50408 11.4665
        3.50408 11.9583C3.50408 13.1088 3.7291 14.2255 4.17241 15.2745C4.59996 16.2896 5.21204 17.201 5.99288 17.9838C6.77373
        18.7666 7.68284 19.3802 8.69547 19.8089C9.7441 20.2533 10.8557 20.4789 12.0034 20.4789C12.5029 20.4789 13.0025
        20.4338 13.4931 20.3458C14.2469 20.7722 15.0975 21 15.9684 21C17.3118 21 18.5764 20.4766 19.5261 19.5224C20.4779
        18.5704 21 17.3025 21 15.9558C21.0022 15.0985 20.7817 14.2525 20.3654 13.5036ZM12.0394 17.1785C9.01951 17.1785
        7.66934 15.6896 7.66934 14.5751C7.66934 14.0021 8.09014 13.6028 8.67071 13.6028C9.96237 13.6028 9.62933 15.464
        12.0394 15.464C13.2748 15.464 13.9566 14.7917 13.9566 14.1036C13.9566 13.6908 13.7541 13.2306 12.9395 13.0298L10.2527
        12.3576C8.09014 11.8139 7.69634 10.6408 7.69634 9.53992C7.69634 7.25241 9.84536 6.39291 11.8639 6.39291C13.7226
        6.39291 15.9144 7.42386 15.9144 8.79546C15.9144 9.38426 15.4058 9.7249 14.8252 9.7249C13.7226 9.7249 13.9251
        8.19539 11.7041 8.19539C10.6015 8.19539 9.99163 8.6962 9.99163 9.41133C9.99163 10.1265 10.8625 10.3543 11.6186
        10.528L13.6078 10.9702C15.7861 11.4575 16.3374 12.732 16.3374 13.9322C16.3374 15.7888 14.913 17.1785 12.0394
        17.1785Z"
          fill="black"/>
</svg>