<!-- Quotes - num-43 -->
<svg width="24" height="24" viewBox="0 0 24 24" fill="none" xmlns="http://www.w3.org/2000/svg">
    <g fill="black">
        <path d="M15 12.75L19.4175 12.75C19.2781 13.6782 18.9467 14.5672 18.4443 15.3601C17.942 16.153 17.2798 16.8325
        16.5 17.355L15.1575 18.255L15.9825 19.5L17.325 18.6C18.455 17.8469 19.3817 16.8266 20.0228 15.6295C20.6639
        14.4323 20.9995 13.0955 21 11.7375L21 6.75C21 6.35217 20.842 5.97064 20.5607 5.68934C20.2794 5.40803 19.8978
        5.25 19.5 5.25L15 5.25C14.6022 5.25 14.2206 5.40803 13.9393 5.68934C13.658 5.97064 13.5 6.35217 13.5 6.75L13.5
        11.25C13.5 11.6478 13.658 12.0294 13.9393 12.3107C14.2206 12.592 14.6022 12.75 15 12.75Z"/>
        <path d="M4.50001 12.75L8.9175 12.75C8.77811 13.6782 8.44666 14.5672 7.94431 15.3601C7.44196 16.153 6.77976
        16.8325 6 17.355L4.6575 18.255L5.475 19.5L6.825 18.6C7.95504 17.8469 8.88172 16.8266 9.5228 15.6295C10.1639
        14.4323 10.4995 13.0955 10.5 11.7375L10.5 6.75C10.5 6.35218 10.342 5.97065 10.0607 5.68934C9.77936 5.40804
        9.39783 5.25 9 5.25L4.50001 5.25C4.10218 5.25 3.72065 5.40804 3.43935 5.68934C3.15804 5.97065 3.00001 6.35218
        3.00001 6.75L3.00001 11.25C3.00001 11.6478 3.15804 12.0294 3.43935 12.3107C3.72065 12.592 4.10218 12.75 4.50001
        12.75Z"/>
    </g>
</svg>