<!-- Email - num-15 -->
<svg width="24" height="24" viewBox="0 0 24 24" fill="none" xmlns="http://www.w3.org/2000/svg">
    <path d="M12 12L3 7.27865V6.16667C3 5.83854 3.11133 5.56207 3.33398 5.33724C3.55664 5.11241 3.82031 5 4.125
        5H19.875C20.1797 5 20.4434 5.11241 20.666 5.33724C20.8887 5.56207 21 5.83854 21 6.16667V7.27865L12 12ZM11.4375
        13.1667H12.5625L21 8.6276V17.8333C21 18.1493 20.8887 18.4227 20.666 18.6536C20.4434 18.8845 20.1797 19 19.875
        19H4.125C3.82031 19 3.55664 18.8845 3.33398 18.6536C3.11133 18.4227 3 18.1493 3 17.8333V8.6276L11.4375 13.1667Z"
          fill="black"/>
</svg>