<!-- Location - num-21 -->
<svg width="24" height="24" viewBox="0 0 24 24" fill="none" xmlns="http://www.w3.org/2000/svg">
    <path d="M17.6572 16.4497C19.1576 14.972 20.0004 12.9681 20.0004 10.8787C20.0004 8.78938 19.1576 6.78553 17.6572 5.30775C16.9145 4.57614 16.0326 3.99576 15.0619 3.59978C14.0913 3.20381 13.0509 3 12.0002 3C10.9495 3 9.90913 3.20381 8.93848 3.59978C7.96784 3.99576 7.08597 4.57614 6.34327 5.30775C4.84286 6.78553 4 8.78938 4 10.8787C4 12.9681 4.84286 14.972 6.34327 16.4497L8.08149 18.1361L10.4163 20.3692L10.5683 20.502C11.4539 21.2085 12.751 21.1635 13.5853 20.3692L16.3681 17.703L17.6572 16.4497ZM12.0002 14.2504C11.0909 14.2504 10.2189 13.8948 9.57593 13.2619C8.93297 12.6289 8.57176 11.7705 8.57176 10.8754C8.57176 9.98026 8.93297 9.12182 9.57593 8.48889C10.2189 7.85595 11.0909 7.50037 12.0002 7.50037C12.9095 7.50037 13.7815 7.85595 14.4245 8.48889C15.0675 9.12182 15.4287 9.98026 15.4287 10.8754C15.4287 11.7705 15.0675 12.6289 14.4245 13.2619C13.7815 13.8948 12.9095 14.2504 12.0002 14.2504Z"
          fill="black"/>
</svg>