<!-- Heart - num-16 -->
<svg width="24" height="24" viewBox="0 0 24 24" fill="none" xmlns="http://www.w3.org/2000/svg">
    <path d="M21.5161 6.68874C21.2058 5.9669 20.7584 5.31277 20.1988 4.76298C19.6389 4.21154 18.9787 3.77332 18.2542
        3.47215C17.5029 3.15862 16.6971 2.99814 15.8835 3.00002C14.7422 3.00002 13.6286 3.314 12.6609 3.90708C12.4294
        4.04895 12.2095 4.20478 12.0011 4.37457C11.7928 4.20478 11.5729 4.04895 11.3413 3.90708C10.3736 3.314 9.26009
        3.00002 8.11876 3.00002C7.2969 3.00002 6.50052 3.15817 5.74811 3.47215C5.02118 3.77451 4.36601 4.20943 3.80345
        4.76298C3.24319 5.31215 2.79564 5.96643 2.48617 6.68874C2.16437 7.43998 2 8.23773 2 9.05874C2 9.83323 2.15743
        10.6403 2.46996 11.4613C2.73157 12.1474 3.10661 12.8591 3.58583 13.5778C4.34518 14.7151 5.38928 15.9013 6.68572
        17.1037C8.83412 19.0969 10.9617 20.4738 11.052 20.5296L11.6006 20.8831C11.8437 21.039 12.1563 21.039 12.3993
        20.8831L12.948 20.5296C13.0383 20.4715 15.1635 19.0969 17.3143 17.1037C18.6107 15.9013 19.6548 14.7151 20.4141
        13.5778C20.8934 12.8591 21.2707 12.1474 21.53 11.4613C21.8426 10.6403 22 9.83323 22 9.05874C22.0023 8.23773
        21.8379 7.43998 21.5161 6.68874Z"
          fill="black"/>
</svg>