<!-- Comment - num-12 -->
<svg width="24" height="24" viewBox="0 0 24 24" fill="none" xmlns="http://www.w3.org/2000/svg">
    <path d="M5.0875 17.25C4.26864 17.25 3.48333 16.9247 2.90431 16.3457C2.32529 15.7667 2 14.9814 2 14.1625V6.0875C2
        5.26864 2.32529 4.48333 2.90431 3.90431C3.48333 3.32529 4.26864 3 5.0875 3H17.9125C18.318 3 18.7194 3.07986 19.094
        3.23502C19.4686 3.39018 19.809 3.61761 20.0957 3.90431C20.3824 4.19101 20.6098 4.53137 20.765 4.90596C20.9201
        5.28056 21 5.68204 21 6.0875V14.1625C21 14.568 20.9201 14.9694 20.765 15.344C20.6098 15.7186 20.3824 16.059
        20.0957 16.3457C19.809 16.6324 19.4686 16.8598 19.094 17.015C18.7194 17.1701 18.318 17.25 17.9125 17.25H12.4614L7.7
        20.8125C7.52357 20.9445 7.31388 21.0249 7.09438 21.0446C6.87489 21.0642 6.65426 21.0224 6.45717 20.9238C6.26008
        20.8252 6.09432 20.6737 5.97843 20.4863C5.86253 20.2989 5.80108 20.0829 5.80095 19.8625V17.25H5.08845H5.0875ZM11.9883
        15.825H17.9125C18.3534 15.825 18.7763 15.6498 19.0881 15.3381C19.3998 15.0263 19.575 14.6034 19.575 14.1625V6.0875C19.575
        5.64658 19.3998 5.22371 19.0881 4.91194C18.7763 4.60016 18.3534 4.425 17.9125 4.425H5.0875C4.64658 4.425 4.22371
        4.60016 3.91194 4.91194C3.60016 5.22371 3.425 5.64658 3.425 6.0875V14.1625C3.425 15.0802 4.1698 15.825 5.0875
        15.825H7.22405V19.3875L11.9883 15.825Z"
          fill="black"/>
</svg>