<!-- Limit - num-20 -->
<svg width="24" height="24" viewBox="0 0 24 24" fill="none" xmlns="http://www.w3.org/2000/svg">
    <path d="M8.37498 17.411C8.97248 16.1456 9.50498 14.8517 9.75915 13.389C9.85832 14.9164 10.7592 16.275 11.1925 17.7387C11.3583 18.4461 11.3708 19.1787 11.1033 19.9097C10.8125 20.7062 10.3442 21.3876 9.78498 22.0001C8.27331 20.3483 7.80831 18.8141 8.37498 17.411ZM17.9975 20.5743C17.31 21.0978 16.4125 21.1759 15.7109 20.8356C15.7109 20.8356 15.52 20.7575 15.345 20.5499C14.0117 18.9805 12.6658 17.4202 11.3217 15.8591C12.5142 16.0809 13.8217 15.4911 14.4925 14.4207C15.1675 13.4024 15.14 11.9489 14.5058 10.9306C13.7425 9.81814 12.26 9.45349 11.0142 9.62405C8.85748 9.93744 7.3083 11.9111 6.8258 13.9779C6.32996 16.3296 6.68747 18.5486 7.45997 20.6424C7.64181 21.1022 7.88156 21.5365 8.17331 21.9346C5.90079 20.9137 3.89245 19.0359 2.83828 16.5094C1.6716 13.7939 1.69493 10.3559 3.08328 7.59834C4.17328 5.46761 6.10246 3.49399 8.49081 2.66052C9.45498 2.24882 10.5492 2.03373 11.6658 2.00012H12.2625C13.8542 2.04801 15.4609 2.46223 16.7917 3.23185C19.7484 4.75008 21.9851 8.52508 21.9951 11.8976C22.0976 15.3869 20.6 18.5478 17.9975 20.5743Z"
          fill="black"/>
</svg>