<!-- Slider - num-31 -->
<svg width="24" height="24" viewBox="0 0 24 24" fill="none" xmlns="http://www.w3.org/2000/svg">
    <g fill="black">
        <path d="M7.5 14.5001C5.92 14.5001 4.597 15.5601 4.163 17.0001H2V19.0001H4.163C4.597 20.4401 5.92 21.5001 7.5
        21.5001C9.08 21.5001 10.403 20.4401 10.837 19.0001H22V17.0001H10.837C10.403 15.5601 9.08 14.5001 7.5 14.5001ZM7.5
        19.5001C6.673 19.5001 6 18.8271 6 18.0001C6 17.1731 6.673 16.5001 7.5 16.5001C8.327 16.5001 9 17.1731 9 18.0001C9
        18.8271 8.327 19.5001 7.5 19.5001ZM16.5 8.50012C14.92 8.50012 13.597 9.56012 13.163 11.0001H2V13.0001H13.163C13.597
        14.4401 14.92 15.5001 16.5 15.5001C18.08 15.5001 19.403 14.4401 19.837 13.0001H22V11.0001H19.837C19.403 9.56012
        18.08 8.50012 16.5 8.50012ZM16.5 13.5001C15.673 13.5001 15 12.8271 15 12.0001C15 11.1731 15.673 10.5001 16.5
        10.5001C17.327 10.5001 18 11.1731 18 12.0001C18 12.8271 17.327 13.5001 16.5 13.5001Z"/>
        <path d="M12.837 5.00012C12.403 3.56012 11.08 2.50012 9.5 2.50012C7.92 2.50012 6.597 3.56012 6.163
        5.00012H2V7.00012H6.163C6.597 8.44012 7.92 9.50012 9.5 9.50012C11.08 9.50012 12.403 8.44012 12.837
        7.00012H22.125V5.00012H12.837ZM9.5 7.50012C8.673 7.50012 8 6.82712 8 6.00012C8 5.17312 8.673 4.50012 9.5
        4.50012C10.327 4.50012 11 5.17312 11 6.00012C11 6.82712 10.327 7.50012 9.5 7.50012Z"/>
    </g>
</svg>