<!-- Calendar-fill - num-4 -->
<svg width="24" height="24" viewBox="0 0 24 24" fill="none" xmlns="http://www.w3.org/2000/svg">
    <path d="M3 20.28C3 20.6783 3.32175 21 3.72 21H20.28C20.6783 21 21 20.6783 21 20.28V10.83H3V20.28ZM20.28
        4.62H16.5V3.18C16.5 3.081 16.419 3 16.32 3H15.06C14.961 3 14.88 3.081 14.88 3.18V4.62H9.12V3.18C9.12 3.081 9.039
        3 8.94 3H7.68C7.581 3 7.5 3.081 7.5 3.18V4.62H3.72C3.32175 4.62 3 4.94175 3 5.34V9.3H21V5.34C21 4.94175 20.6783
        4.62 20.28 4.62Z"
          fill="black"/>
</svg>