<!-- Person - num-24 -->
<svg width="24" height="24" viewBox="0 0 24 24" fill="none" xmlns="http://www.w3.org/2000/svg">
    <path d="M14.5984 14.0145C14.4824 13.9781 13.7495 13.6612 14.2075 12.3257H14.2009C15.3947 11.1461 16.307 9.24812
        16.307 7.37949C16.307 4.50624 14.3154 3 12.0007 3C9.6846 3 7.70392 4.50554 7.70392 7.37949C7.70392 9.25582
        8.61112 11.1615 9.81222 12.3383C10.2804 13.5164 9.44321 13.9536 9.26819 14.0152C6.84412 14.8561 4 16.3889 4
        17.9022V18.4695C4 20.5313 8.167 21 12.0233 21C15.8855 21 20 20.5313 20 18.4695V17.9022C20 16.3435 17.142 14.8225
        14.5984 14.0145Z"
          fill="black"/>
</svg>