<!-- Soc-behance - num-32 -->
<svg width="24" height="24" viewBox="0 0 24 24" fill="none" xmlns="http://www.w3.org/2000/svg">
    <g fill="black">
        <path d="M15.5399 11.1C14.3787 11.1 14.218 12.2571 14.218 12.2571H16.685C16.685 12.2571 16.7011 11.1 15.5399 11.1Z"/>
        <path d="M9.9428 12.2572H7.75708V14.2661H9.83432C10.1477 14.2581 10.7343 14.1697 10.7343 13.2898C10.7343 12.2452
        9.9428 12.2572 9.9428 12.2572Z"/>
        <path d="M12 3C7.02992 3 3 7.02992 3 12C3 16.9701 7.02992 21.0001 12 21.0001C16.9701 21.0001 21.0001 16.9701
        21.0001 12C21.0001 7.02992 16.9701 3 12 3ZM13.8965 8.52859H16.9942V9.4527H13.8965V8.52859ZM12.3295 13.3822C12.3295
        15.6724 9.94288 15.6 9.94288 15.6H6.03751V8.08662H9.94288C11.1322 8.08662 12.0683 8.74154 12.0683 10.0875C12.0683
        11.4335 10.9232 11.5179 10.9232 11.5179C12.434 11.5179 12.3295 13.3822 12.3295 13.3822ZM18.1233 13.2576H14.2299C14.2299
        14.6518 15.5518 14.5634 15.5518 14.5634C16.8014 14.5634 16.7572 13.7558 16.7572 13.7558H18.0791C18.0791 15.9014
        15.5076 15.7527 15.5076 15.7527C12.4259 15.7527 12.6228 12.8799 12.6228 12.8799C12.6228 12.8799 12.6188 9.99511
        15.5076 9.99511C18.5492 9.99913 18.1233 13.2576 18.1233 13.2576Z"/>
        <path d="M10.4732 10.204C10.4732 9.42456 9.9428 9.42456 9.9428 9.42456H7.75708V11.1H9.8062C10.1598 11.1 10.4732
        10.9835 10.4732 10.204Z"/>
    </g>
</svg>