<!-- Phone - num-25 -->
<svg width="24" height="24" viewBox="0 0 24 24" fill="none" xmlns="http://www.w3.org/2000/svg">
    <path d="M15.3333 3H8.66667C8.22464 3 7.80072 3.18964 7.48816 3.52721C7.17559 3.86477 7 4.32261 7 4.8V19.2C7 19.6774 7.17559 20.1352 7.48816 20.4728C7.80072 20.8104 8.22464 21 8.66667 21H15.3333C15.7754 21 16.1993 20.8104 16.5118 20.4728C16.8244 20.1352 17 19.6774 17 19.2V4.8C17 4.32261 16.8244 3.86477 16.5118 3.52721C16.1993 3.18964 15.7754 3 15.3333 3ZM12.8333 20.1H11.1667V19.2H12.8333V20.1ZM15.3333 18.3H8.66667V5.7H15.3333V18.3Z"
          fill="black"/>
</svg>