<!-- Design - num-14 -->
<svg width="24" height="24" viewBox="0 0 24 24" fill="none" xmlns="http://www.w3.org/2000/svg">
    <path d="M16.7883 7.35471C17.2336 6.91174 17.2336 6.18987 16.7883 5.7469L15.15 4.10862L15.1523 4.11096C14.7187
        3.67737 13.9734 2.93206 12.9187 1.87971C12.4219 1.39456 11.618 1.39924 11.1258 1.89143L1.89608 11.1141C1.77799
        11.2314 1.68427 11.3709 1.62032 11.5245C1.55636 11.6782 1.52344 11.843 1.52344 12.0094C1.52344 12.1758 1.55636
        12.3406 1.62032 12.4943C1.68427 12.6479 1.77799 12.7874 1.89608 12.9047L11.1234 22.125C11.3613 22.3625 11.6838
        22.4959 12.0199 22.4959C12.3561 22.4959 12.6785 22.3625 12.9164 22.125L16.7859 18.2578C17.2312 17.8149 17.2312
        17.093 16.7859 16.65C16.572 16.4372 16.2826 16.3177 15.9809 16.3177C15.6791 16.3177 15.3897 16.4372 15.1758
        16.65L12.2461 19.5844C12.1242 19.7063 11.9344 19.7063 11.8125 19.5844L4.44139 12.2203C4.31951 12.0985 4.31951
        11.9086 4.44139 11.7867L11.8101 4.42268C11.8195 4.41331 11.8312 4.40628 11.8406 4.3969C11.9625 4.30081 12.1312
        4.31018 12.2437 4.42268L15.1781 7.35471C15.6234 7.80003 16.3453 7.80003 16.7883 7.35471ZM9.57655 12.0563C9.57655
        12.7164 9.83904 13.3495 10.3063 13.8163C10.7735 14.2831 11.4072 14.5453 12.068 14.5453C12.7287 14.5453 13.3624
        14.2831 13.8297 13.8163C14.2969 13.3495 14.5594 12.7164 14.5594 12.0563C14.5594 11.3961 14.2969 10.763 13.8297
        10.2962C13.3624 9.82945 12.7287 9.56721 12.068 9.56721C11.4072 9.56721 10.7735 9.82945 10.3063 10.2962C9.83904
        10.763 9.57655 11.3961 9.57655 12.0563ZM22.1438 11.1516L19.2633 8.28518C18.818 7.84221 18.0961 7.84221 17.6531
        8.28753C17.5473 8.39293 17.4632 8.5182 17.4059 8.65616C17.3486 8.79412 17.3191 8.94204 17.3191 9.09143C17.3191
        9.24083 17.3486 9.38875 17.4059 9.5267C17.4632 9.66466 17.5473 9.78994 17.6531 9.89534L19.5984 11.8383C19.7203
        11.9602 19.7203 12.15 19.5984 12.2719L17.6812 14.1867C17.5754 14.2921 17.4914 14.4174 17.434 14.5554C17.3767
        14.6933 17.3472 14.8413 17.3472 14.9907C17.3472 15.14 17.3767 15.288 17.434 15.4259C17.4914 15.5639 17.5754
        15.6892 17.6812 15.7946C17.8951 16.0074 18.1846 16.1269 18.4863 16.1269C18.7881 16.1269 19.0775 16.0074 19.2914
        15.7946L22.1461 12.9422C22.2638 12.8246 22.3571 12.685 22.4207 12.5313C22.4843 12.3775 22.5169 12.2128 22.5167
        12.0464C22.5165 11.8801 22.4834 11.7154 22.4194 11.5618C22.3554 11.4083 22.2617 11.2689 22.1438 11.1516Z"
          fill="black"/>
</svg>