<!-- Calendar - num-3 -->
<svg width="24" height="24" viewBox="0 0 24 24" fill="none" xmlns="http://www.w3.org/2000/svg">
    <path d="M20.28 4.62H16.5V3.18C16.5 3.081 16.419 3 16.32 3H15.06C14.961 3 14.88 3.081 14.88 3.18V4.62H9.12V3.18C9.12 3.081 9.039 3 8.94 3H7.68C7.581 3 7.5 3.081 7.5 3.18V4.62H3.72C3.32175 4.62 3 4.94175 3 5.34V20.28C3 20.6783 3.32175 21 3.72 21H20.28C20.6783 21 21 20.6783 21 20.28V5.34C21 4.94175 20.6783 4.62 20.28 4.62ZM19.38 19.38H4.62V10.83H19.38V19.38ZM4.62 9.3V6.24H7.5V7.32C7.5 7.419 7.581 7.5 7.68 7.5H8.94C9.039 7.5 9.12 7.419 9.12 7.32V6.24H14.88V7.32C14.88 7.419 14.961 7.5 15.06 7.5H16.32C16.419 7.5 16.5 7.419 16.5 7.32V6.24H19.38V9.3H4.62Z"
          fill="black"/>
</svg>