<!-- Check - num-5 -->
<svg width="24" height="24" viewBox="0 0 24 24" fill="none" xmlns="http://www.w3.org/2000/svg">
    <path d="M21 12C21 14.3869 20.0518 16.6761 18.364 18.364C16.6761 20.0518 14.3869 21 12 21C9.61305 21 7.32387 20.0518
    5.63604 18.364C3.94821 16.6761 3 14.3869 3 12C3 9.61305 3.94821 7.32387 5.63604 5.63604C7.32387 3.94821 9.61305
    3 12 3C14.3869 3 16.6761 3.94821 18.364 5.63604C20.0518 7.32387 21 9.61305 21 12ZM16.5337 8.59125C16.4534 8.51117
    16.3577 8.44812 16.2524 8.40587C16.1471 8.36361 16.0344 8.34303 15.921 8.34534C15.8076 8.34765 15.6958 8.37281
    15.5923 8.41931C15.4888 8.46582 15.3958 8.53271 15.3187 8.616L11.4116 13.5941L9.057 11.2384C8.89705 11.0893 8.6855
    11.0082 8.46691 11.0121C8.24832 11.0159 8.03976 11.1045 7.88518 11.2591C7.73059 11.4136 7.64204 11.6222 7.63818
    11.8408C7.63432 12.0594 7.71546 12.2709 7.8645 12.4309L10.8412 15.4087C10.9214 15.4888 11.0169 15.5519 11.122
    15.5942C11.2271 15.6366 11.3397 15.6573 11.453 15.6552C11.5662 15.6531 11.678 15.6282 11.7814 15.582C11.8849 15.5358
    11.978 15.4692 12.0551 15.3863L16.5461 9.7725C16.6992 9.61331 16.7838 9.40043 16.7817 9.17958C16.7796 8.95872 16.691
    8.74749 16.5349 8.59125H16.5337Z"
          fill="black"/>
</svg>