<!-- Coffee - num-11 -->
<svg width="24" height="24" viewBox="0 0 24 24" fill="none" xmlns="http://www.w3.org/2000/svg">
    <path d="M4.88889 3H6.77778V5.84211H4.88889V3ZM8.66667 3H10.5556V5.84211H8.66667V3ZM12.4444 3H14.3333V5.84211H12.4444V3ZM18.1111 9.63158H16.2222V8.68421C16.2222 8.43295 16.1227 8.19199 15.9456 8.01432C15.7685 7.83665 15.5283 7.73684 15.2778 7.73684H3.94444C3.69396 7.73684 3.45374 7.83665 3.27662 8.01432C3.0995 8.19199 3 8.43295 3 8.68421V18.1579C3 18.9117 3.29851 19.6346 3.82986 20.1676C4.36122 20.7006 5.08189 21 5.83333 21H13.3889C14.1403 21 14.861 20.7006 15.3924 20.1676C15.9237 19.6346 16.2222 18.9117 16.2222 18.1579H18.1111C19.1528 18.1579 20 17.3081 20 16.2632V11.5263C20 10.4814 19.1528 9.63158 18.1111 9.63158ZM16.2222 16.2632V11.5263H18.1111L18.113 16.2632H16.2222Z"
          fill="black"/>
</svg>