<!-- Like-fill - num-19 -->
<svg width="24" height="24" viewBox="0 0 24 24" fill="none" xmlns="http://www.w3.org/2000/svg">
    <path d="M14.6432 3.45876C13.7584 2.58427 12.3267 3.05442 11.9513 4.07519C11.6412 4.91729 11.2382 5.92657 10.8462
        6.66942C9.67239 8.89065 8.98805 10.1538 7.09894 11.7356C6.82206 11.9556 6.50701 12.1288 6.16768 12.2476C4.91639
        12.7136 3.74262 13.936 4.04935 15.3872L4.44024 17.2313C4.54102 17.707 4.78026 18.1469 5.13114 18.5016C5.48202
        18.8563 5.93067 19.1117 6.42679 19.2394L12.6279 20.8348C13.2941 21.006 13.9907 21.0447 14.6737 20.9484C15.3566
        20.8521 16.0108 20.623 16.5949 20.2755C17.179 19.9281 17.6802 19.4699 18.0667 18.93C18.4532 18.3901 18.7165 17.7803
        18.84 17.1393L19.5985 13.2098C19.6856 12.7581 19.6665 12.2938 19.5424 11.8498C19.4184 11.4058 19.1924 10.9929
        18.8806 10.6404C18.5688 10.2879 18.1787 10.0043 17.7379 9.80971C17.2971 9.61514 16.8163 9.51433 16.3297 9.51439H15.3519L15.363
        9.46007C15.4516 9.03274 15.5579 8.44661 15.6287 7.80615C15.7007 7.16883 15.7395 6.46359 15.683 5.80746C15.6276
        5.16387 15.4792 4.50251 15.1249 3.99996C14.9802 3.80752 14.8191 3.62652 14.6432 3.45876Z"
          fill="black"/>
</svg>