<!-- Sq-3 - num-39 -->
<svg width="24" height="24" viewBox="0 0 24 24" fill="none" xmlns="http://www.w3.org/2000/svg">
    <g fill="black">
        <path d="M3 5.4C3 4.07452 4.07452 3 5.4 3H9.22069C10.5462 3 11.6207 4.07452 11.6207 5.4V9.22069C11.6207 10.5462 10.5462 11.6207 9.22069 11.6207H5.4C4.07452 11.6207 3 10.5462 3 9.22069V5.4Z"/>
        <path d="M12.3792 5.4C12.3792 4.07452 13.4537 3 14.7792 3H18.5998C19.9253 3 20.9998 4.07452 20.9998 5.4V9.22069C20.9998 10.5462 19.9253 11.6207 18.5998 11.6207H14.7792C13.4537 11.6207 12.3792 10.5462 12.3792 9.22069V5.4Z"/>
        <path d="M3 14.7795C3 13.454 4.07452 12.3795 5.4 12.3795H9.22069C10.5462 12.3795 11.6207 13.454 11.6207 14.7795V18.6002C11.6207 19.9257 10.5462 21.0002 9.22069 21.0002H5.4C4.07452 21.0002 3 19.9257 3 18.6002V14.7795Z"/>
        <path fill-rule="evenodd" clip-rule="evenodd" d="M18.5998 12.9795H14.7792C13.785 12.9795 12.9792 13.7854 12.9792 14.7795V18.6002C12.9792 19.5943 13.785 20.4002 14.7792 20.4002H18.5998C19.594 20.4002 20.3998 19.5943 20.3998 18.6002V14.7795C20.3998 13.7854 19.594 12.9795 18.5998 12.9795ZM14.7792 12.3795C13.4537 12.3795 12.3792 13.454 12.3792 14.7795V18.6002C12.3792 19.9257 13.4537 21.0002 14.7792 21.0002H18.5998C19.9253 21.0002 20.9998 19.9257 20.9998 18.6002V14.7795C20.9998 13.454 19.9253 12.3795 18.5998 12.3795H14.7792Z"/>
    </g>
</svg>