<!-- Comment-fill - num-13 -->
<svg width="24" height="24" viewBox="0 0 24 24" fill="none" xmlns="http://www.w3.org/2000/svg">
    <path d="M5.0875 17.25C4.26864 17.25 3.48333 16.9247 2.90431 16.3457C2.32529 15.7667 2 14.9814 2 14.1625V6.0875C2
        5.26864 2.32529 4.48333 2.90431 3.90431C3.48333 3.32529 4.26864 3 5.0875 3H17.9125C18.318 3 18.7194 3.07986 19.094
        3.23502C19.4686 3.39018 19.809 3.61761 20.0957 3.90431C20.3824 4.19101 20.6098 4.53137 20.765 4.90596C20.9201
        5.28056 21 5.68204 21 6.0875V14.1625C21 14.568 20.9201 14.9694 20.765 15.344C20.6098 15.7186 20.3824 16.059 20.0957
        16.3457C19.809 16.6324 19.4686 16.8598 19.094 17.015C18.7194 17.1701 18.318 17.25 17.9125 17.25H12.4167L7.2991
        20.8762C7.15699 20.9768 6.98995 21.0365 6.81622 21.0486C6.6425 21.0607 6.46879 21.0249 6.31406 20.945C6.15933 20.8651
        6.02954 20.7442 5.93888 20.5955C5.84823 20.4468 5.80018 20.276 5.8 20.1019V17.25H5.0875Z"
          fill="black"/>
</svg>