<!-- Star - num-41 -->
<svg width="24" height="24" viewBox="0 0 24 24" fill="none" xmlns="http://www.w3.org/2000/svg">
    <path fill-rule="evenodd" clip-rule="evenodd" d="M13.4638 8.71867L12 4.00792L10.5362 8.71867C10.2781 9.54924
        9.53791 10.1116 8.70272 10.1116L3.96576 10.1116L7.79804 13.023C8.47372 13.5363 8.75646 14.4462 8.49837
        15.2768L7.03457 19.9875L10.8668 17.0761C11.5425 16.5628 12.4575 16.5628 13.1332 17.0761L16.9654 19.9875L15.5016
        15.2768C15.2435 14.4462 15.5263 13.5363 16.202 13.023L20.0342 10.1116H15.2973C14.4621 10.1116 13.7219 9.54924
        13.4638 8.71867ZM12.9167 3.69645C12.6282 2.76785 11.3718 2.76785 11.0833 3.69645L9.61946 8.40721C9.49042 8.82249
        9.12031 9.10366 8.70272 9.10366H3.96576C3.032 9.10366 2.64375 10.3531 3.39919 10.927L7.23147 13.8384C7.56931
        14.0951 7.71067 14.55 7.58163 14.9653L6.11783 19.6761C5.82928 20.6047 6.84571 21.3768 7.60115 20.8029L11.4334
        17.8915C11.7713 17.6349 12.2287 17.6349 12.5666 17.8915L16.3989 20.8029C17.1543 21.3768 18.1707 20.6047 17.8822
        19.676L16.4184 14.9653C16.2893 14.55 16.4307 14.0951 16.7685 13.8384L20.6008 10.927C21.3562 10.3531 20.968
        9.10366 20.0342 9.10366H15.2973C14.8797 9.10366 14.5096 8.82249 14.3805 8.40721L12.9167 3.69645Z"
          fill="black"/>
</svg>