<svg width="44" height="44" viewBox="0 0 44 44" fill="none" xmlns="http://www.w3.org/2000/svg">
<path d="M21.0489 2.92705C21.3483 2.00574 22.6517 2.00574 22.9511 2.92705L26.7148 14.5106C26.8487 14.9227 27.2326 15.2016 27.6659 15.2016H39.8456C40.8143 15.2016 41.2171 16.4412 40.4333 17.0106L30.5798 24.1697C30.2293 24.4243 30.0826 24.8757 30.2165 25.2877L33.9802 36.8713C34.2796 37.7926 33.2251 38.5588 32.4414 37.9894L22.5878 30.8303C22.2373 30.5757 21.7627 30.5757 21.4122 30.8303L11.5586 37.9894C10.7749 38.5588 9.72043 37.7926 10.0198 36.8713L13.7835 25.2877C13.9174 24.8757 13.7707 24.4243 13.4202 24.1697L3.56665 17.0106C2.78294 16.4412 3.18572 15.2016 4.15444 15.2016H16.3342C16.7674 15.2016 17.1513 14.9227 17.2852 14.5106L21.0489 2.92705Z" fill="#41A3D0"/>
</svg>
