<svg width="24" height="24" viewBox="0 0 24 24" fill="none" xmlns="http://www.w3.org/2000/svg">
<path fill-rule="evenodd" clip-rule="evenodd" d="M3 12.0503C3 16.5251 6.25 20.2458 10.5 21L10.6508 20.8787C10.6006 20.8696 10.5503 20.8601 10.5 20.85V14.5H8.25V12H10.5V10C10.5 7.75 11.95 6.5 14 6.5C14.65 6.5 15.35 6.6 16 6.7V9H14.85C13.75 9 13.5 9.55 13.5 10.25V12H15.9L15.5 14.5H13.5V20.85C13.4497 20.8601 13.3994 20.8696 13.3492 20.8787L13.5 21C17.75 20.2458 21 16.5251 21 12.0503C21 7.07263 16.95 3 12 3C7.05 3 3 7.07263 3 12.0503Z" fill="#59A5D8"/>
</svg>
