<svg width="24" height="24" viewBox="0 0 24 24" fill="none" xmlns="http://www.w3.org/2000/svg">
<path d="M7.48785 18.2416L13.9698 11.9916L7.48785 5.74164C7.33318 5.59251 7.21049 5.41546 7.12679 5.22061C7.04308 5.02576 7 4.81692 7 4.60602C7 4.39511 7.04308 4.18627 7.12679 3.99142C7.21049 3.79657 7.33318 3.61952 7.48785 3.47039C7.64252 3.32126 7.82613 3.20296 8.02822 3.12225C8.2303 3.04154 8.44689 3 8.66562 3C8.88435 3 9.10094 3.04154 9.30303 3.12225C9.50511 3.20296 9.68873 3.32126 9.84339 3.47039L17.5114 10.864C17.6663 11.0131 17.7892 11.1901 17.873 11.3849C17.9568 11.5798 18 11.7887 18 11.9997C18 12.2106 17.9568 12.4195 17.873 12.6144C17.7892 12.8092 17.6663 12.9863 17.5114 13.1353L9.84339 20.5289C9.68884 20.6783 9.50526 20.7967 9.30316 20.8776C9.10106 20.9584 8.88442 21 8.66562 21C8.44683 21 8.23018 20.9584 8.02808 20.8776C7.82598 20.7967 7.6424 20.6783 7.48785 20.5289C6.85302 19.9007 6.83632 18.8698 7.48785 18.2416Z" fill="#020202"/>
</svg>
