<svg width="24" height="24" viewBox="0 0 24 24" fill="none" xmlns="http://www.w3.org/2000/svg">
<path d="M10.1697 11.0156V8.24023H12.1722C13.2668 8.24023 13.9069 8.75436 13.9069 9.63186C13.9069 10.5341 13.2274 11.0156 11.9224 11.0156H10.1697ZM10.1697 15.2479H12.3049C13.6369 15.2479 14.3412 14.7079 14.3412 13.6987C14.3412 12.7031 13.6099 12.1822 12.2194 12.1822H10.1697V15.2479V15.2479Z" fill="black"/>
<path d="M7.5 3C6.30653 3 5.16193 3.47411 4.31802 4.31802C3.47411 5.16193 3 6.30653 3 7.5V16.5C3 17.6935 3.47411 18.8381 4.31802 19.682C5.16193 20.5259 6.30653 21 7.5 21H16.5C17.6935 21 18.8381 20.5259 19.682 19.682C20.5259 18.8381 21 17.6935 21 16.5V7.5C21 6.30653 20.5259 5.16193 19.682 4.31802C18.8381 3.47411 17.6935 3 16.5 3H7.5V3ZM8.6925 16.5V6.98813H12.5164C14.3018 6.98813 15.3772 7.89825 15.3772 9.36188C15.3772 10.3564 14.646 11.2463 13.7089 11.4049V11.5174C14.9948 11.649 15.8509 12.5648 15.8509 13.8045C15.8509 15.4785 14.6314 16.5 12.6019 16.5H8.6925V16.5Z" fill="black"/>
</svg>
