<svg width="24" height="24" viewBox="0 0 24 24" fill="none" xmlns="http://www.w3.org/2000/svg">
<path d="M12 3C7.02991 3 3 7.02991 3 12C3 16.9701 7.02991 21 12 21C16.9701 21 21 16.9701 21 12C21 7.02991 16.9701 3 12 3ZM15.5458 14.7663L14.9712 15.5498C14.9587 15.5668 14.943 15.5813 14.9249 15.5922C14.9068 15.6032 14.8867 15.6104 14.8658 15.6136C14.8449 15.6168 14.8236 15.6158 14.803 15.6107C14.7825 15.6056 14.7632 15.5965 14.7462 15.5839L11.4234 13.1612C11.4027 13.1463 11.3859 13.1267 11.3744 13.104C11.3628 13.0812 11.3569 13.0561 11.3571 13.0306V7.5C11.3571 7.41161 11.4295 7.33929 11.5179 7.33929H12.4842C12.5725 7.33929 12.6449 7.41161 12.6449 7.5V12.4721L15.5096 14.5433C15.5819 14.5935 15.598 14.694 15.5458 14.7663Z" fill="black"/>
</svg>
