<svg width="24" height="24" viewBox="0 0 24 24" fill="none" xmlns="http://www.w3.org/2000/svg">
<path d="M12 3C7.02991 3 3 7.02991 3 12C3 16.9701 7.02991 21 12 21C16.9701 21 21 16.9701 21 12C21 7.02991 16.9701 3 12 3ZM12 19.4732C7.87366 19.4732 4.52679 16.1263 4.52679 12C4.52679 7.87366 7.87366 4.52679 12 4.52679C16.1263 4.52679 19.4732 7.87366 19.4732 12C19.4732 16.1263 16.1263 19.4732 12 19.4732Z" fill="black"/>
<path d="M16.5852 13.7705L13.5772 11.5957V6.37505C13.5772 6.28224 13.5013 6.2063 13.4085 6.2063H12.3938C12.301 6.2063 12.2251 6.28224 12.2251 6.37505V12.1843C12.2251 12.2391 12.2504 12.2897 12.2947 12.3214L15.7836 14.8653C15.8595 14.9201 15.965 14.9032 16.0199 14.8294L16.6231 14.0067C16.678 13.9287 16.6611 13.8232 16.5852 13.7705Z" fill="black"/>
</svg>
