<svg width="24" height="24" viewBox="0 0 24 24" fill="none" xmlns="http://www.w3.org/2000/svg">
<path d="M3 6.75C3 5.75544 3.39509 4.80161 4.09835 4.09835C4.80161 3.39509 5.75544 3 6.75 3H17.25C18.2446 3 19.1984 3.39509 19.9016 4.09835C20.6049 4.80161 21 5.75544 21 6.75V17.25C21 18.2446 20.6049 19.1984 19.9016 19.9016C19.1984 20.6049 18.2446 21 17.25 21H6.75C5.75544 21 4.80161 20.6049 4.09835 19.9016C3.39509 19.1984 3 18.2446 3 17.25V6.75ZM11.25 9C11.0511 9 10.8603 9.07902 10.7197 9.21967C10.579 9.36032 10.5 9.55109 10.5 9.75V15.75C10.5 15.9489 10.421 16.1397 10.2803 16.2803C10.1397 16.421 9.94891 16.5 9.75 16.5H8.25C8.05109 16.5 7.86032 16.579 7.71967 16.7197C7.57902 16.8603 7.5 17.0511 7.5 17.25C7.5 17.4489 7.57902 17.6397 7.71967 17.7803C7.86032 17.921 8.05109 18 8.25 18H9.75C10.3467 18 10.919 17.7629 11.341 17.341C11.7629 16.919 12 16.3467 12 15.75V9.75C12 9.55109 11.921 9.36032 11.7803 9.21967C11.6397 9.07902 11.4489 9 11.25 9ZM12.75 11.25V12C12.75 12.5967 12.9871 13.169 13.409 13.591C13.831 14.0129 14.4033 14.25 15 14.25H15.75C15.9489 14.25 16.1397 14.329 16.2803 14.4697C16.421 14.6103 16.5 14.8011 16.5 15V15.75C16.5 15.9489 16.421 16.1397 16.2803 16.2803C16.1397 16.421 15.9489 16.5 15.75 16.5H13.5C13.3011 16.5 13.1103 16.579 12.9697 16.7197C12.829 16.8603 12.75 17.0511 12.75 17.25C12.75 17.4489 12.829 17.6397 12.9697 17.7803C13.1103 17.921 13.3011 18 13.5 18H15.75C16.3467 18 16.919 17.7629 17.341 17.341C17.7629 16.919 18 16.3467 18 15.75V15C18 14.4033 17.7629 13.831 17.341 13.409C16.919 12.9871 16.3467 12.75 15.75 12.75H15C14.8011 12.75 14.6103 12.671 14.4697 12.5303C14.329 12.3897 14.25 12.1989 14.25 12V11.25C14.25 11.0511 14.329 10.8603 14.4697 10.7197C14.6103 10.579 14.8011 10.5 15 10.5H17.25C17.4489 10.5 17.6397 10.421 17.7803 10.2803C17.921 10.1397 18 9.94891 18 9.75C18 9.55109 17.921 9.36032 17.7803 9.21967C17.6397 9.07902 17.4489 9 17.25 9H15C14.4033 9 13.831 9.23705 13.409 9.65901C12.9871 10.081 12.75 10.6533 12.75 11.25Z" fill="black"/>
</svg>
