<svg width="24" height="24" viewBox="0 0 24 24" fill="none" xmlns="http://www.w3.org/2000/svg">
<path d="M15.3425 6.56804C15.3425 4.49299 14.379 3 12.8011 3C11.9339 3 11.6364 3.51154 11.3254 4.69947C11.262 4.94505 11.2308 5.06486 11.1978 5.18212C11.1124 5.48718 10.9637 6.00637 10.7524 6.73799C10.7466 6.75753 10.7381 6.77613 10.727 6.79322L8.30562 10.6051C7.73231 11.5065 6.88657 12.1993 5.89266 12.5816L5.49289 12.7354C4.98245 12.932 4.55724 13.3032 4.29199 13.7837C4.02675 14.2642 3.93844 14.8233 4.04258 15.3628L4.38403 17.1354C4.48395 17.6535 4.72946 18.132 5.0915 18.5143C5.45353 18.8965 5.91692 19.1664 6.4268 19.292L12.8738 20.881C13.9016 21.1342 14.9872 20.9691 15.8946 20.4217C16.802 19.8743 17.4577 18.9888 17.7191 17.9579L18.9151 13.2419C19.0183 12.8342 19.0276 12.4081 18.9421 11.9962C18.8566 11.5844 18.6786 11.1976 18.4218 10.8654C18.165 10.5333 17.836 10.2645 17.4601 10.0796C17.0842 9.89474 16.6712 9.79868 16.2528 9.79874H14.7129C15.1321 8.41112 15.3434 7.34045 15.3434 6.56804H15.3425ZM5.28498 15.1206C5.23752 14.8753 5.27761 14.6211 5.39818 14.4026C5.51876 14.1841 5.7121 14.0153 5.94421 13.9259L6.34482 13.773C7.59199 13.2928 8.6531 12.4231 9.37223 11.2917L11.7953 7.47981C11.8714 7.36 11.9297 7.22999 11.9686 7.09318C12.1816 6.35816 12.3303 5.83642 12.4165 5.52712C12.4537 5.39711 12.4884 5.2654 12.5509 5.02407C12.7115 4.41056 12.7901 4.2746 12.8002 4.2746C13.5338 4.2746 14.0739 5.11075 14.0739 6.56889C14.0739 7.32006 13.7984 8.55303 13.2423 10.2347C13.2105 10.3304 13.2019 10.4324 13.217 10.5321C13.2322 10.6319 13.2707 10.7267 13.3293 10.8085C13.388 10.8904 13.4652 10.9571 13.5545 11.0032C13.6439 11.0492 13.7428 11.0733 13.8432 11.0733H16.2519C16.4772 11.0735 16.6995 11.1253 16.9018 11.225C17.1041 11.3246 17.2812 11.4693 17.4194 11.6481C17.5577 11.827 17.6535 12.0352 17.6996 12.2569C17.7457 12.4786 17.7408 12.7079 17.6853 12.9275L16.4894 17.6435C16.3104 18.3489 15.8617 18.9546 15.2407 19.329C14.6198 19.7035 13.877 19.8163 13.1738 19.6429L6.72684 18.0539C6.45243 17.9863 6.20304 17.841 6.00818 17.6353C5.81332 17.4296 5.68114 17.1721 5.62727 16.8932L5.28498 15.1206Z" fill="black"/>
</svg>
