<svg width="24" height="24" viewBox="0 0 24 24" fill="none" xmlns="http://www.w3.org/2000/svg">
<path d="M8 18C8 16.8954 8.89543 16 10 16H20C21.1046 16 22 16.8954 22 18C22 19.1046 21.1046 20 20 20H10C8.89543 20 8 19.1046 8 18Z" fill="black"/>
<path d="M8 12C8 10.8954 8.89543 10 10 10H20C21.1046 10 22 10.8954 22 12C22 13.1046 21.1046 14 20 14H10C8.89543 14 8 13.1046 8 12Z" fill="black"/>
<path d="M8 6C8 4.89543 8.89543 4 10 4H20C21.1046 4 22 4.89543 22 6C22 7.10457 21.1046 8 20 8H10C8.89543 8 8 7.10457 8 6Z" fill="black"/>
<path d="M2 18C2 16.8954 2.89543 16 4 16C5.10457 16 6 16.8954 6 18C6 19.1046 5.10457 20 4 20C2.89543 20 2 19.1046 2 18Z" fill="black"/>
<path d="M2 12C2 10.8954 2.89543 10 4 10C5.10457 10 6 10.8954 6 12C6 13.1046 5.10457 14 4 14C2.89543 14 2 13.1046 2 12Z" fill="black"/>
<path d="M2 6C2 4.89543 2.89543 4 4 4C5.10457 4 6 4.89543 6 6C6 7.10457 5.10457 8 4 8C2.89543 8 2 7.10457 2 6Z" fill="black"/>
</svg>
