<svg width="24" height="24" viewBox="0 0 24 24" fill="none" xmlns="http://www.w3.org/2000/svg">
<path d="M7.01175 10.2067H6.066L5.55075 12.855H6.39075C6.945 12.855 7.359 12.75 7.63275 12.5392C7.902 12.3322 8.08575 11.9805 8.1795 11.4922C8.2725 11.0235 8.22975 10.6912 8.05875 10.4962C7.8825 10.305 7.5345 10.2075 7.01175 10.2075V10.2067ZM12 5.68799C5.37075 5.68799 0 8.51624 0 12C0 15.4837 5.37075 18.312 12 18.312C18.6292 18.312 24 15.4837 24 12C24 8.51624 18.6292 5.68799 12 5.68799ZM8.73825 13.1407C8.47862 13.3903 8.16615 13.5782 7.824 13.6905C7.488 13.7962 7.059 13.8547 6.53925 13.8547H5.355L5.031 15.5347H3.65175L4.8825 9.21074H7.53075C8.328 9.21074 8.91 9.41774 9.27675 9.83549C9.6405 10.2532 9.75375 10.8397 9.6045 11.5897C9.54865 11.8867 9.44613 12.173 9.30075 12.438C9.15115 12.7004 8.96106 12.9376 8.7375 13.1407H8.73825ZM12.7657 13.8547L13.3088 11.055C13.371 10.7377 13.3477 10.5202 13.2375 10.4017C13.1325 10.2885 12.9015 10.23 12.5505 10.23H11.4608L10.758 13.8547H9.387L10.617 7.52699H11.9843L11.6565 9.21074H12.8752C13.6455 9.21074 14.172 9.34349 14.4615 9.60899C14.7547 9.87899 14.8402 10.3117 14.7277 10.9102L14.1525 13.8555L12.7657 13.8547ZM20.3587 11.5897C20.3046 11.8872 20.202 12.1738 20.055 12.438C19.9068 12.7001 19.7182 12.9373 19.4963 13.1407C19.2343 13.3891 18.9209 13.5768 18.5783 13.6905C18.2423 13.7962 17.8125 13.8547 17.2935 13.8547H16.1138L15.786 15.5347H14.4067L15.6375 9.21074H18.2858C19.083 9.21074 19.665 9.41774 20.0317 9.83999C20.3955 10.254 20.5087 10.8397 20.3595 11.5897H20.3587ZM17.766 10.2067H16.824L16.3088 12.855H17.145C17.703 12.855 18.117 12.75 18.387 12.5392C18.66 12.3322 18.8438 11.9805 18.9382 11.4922C19.0312 11.0235 18.9885 10.6912 18.8123 10.4962C18.6413 10.305 18.2895 10.2075 17.766 10.2075V10.2067Z" fill="black"/>
</svg>
