<svg width="24" height="24" viewBox="0 0 24 24" fill="none" xmlns="http://www.w3.org/2000/svg">
<path d="M5.33333 6V16H9.5V12C9.5 11.4696 9.67559 10.9609 9.98816 10.5858C10.3007 10.2107 10.7246 10 11.1667 10H15.3333C15.7754 10 16.1993 10.2107 16.5118 10.5858C16.8244 10.9609 17 11.4696 17 12V16H18.6667V6H5.33333ZM2 20V18H5.33333C4.89131 18 4.46738 17.7893 4.15482 17.4142C3.84226 17.0391 3.66667 16.5304 3.66667 16V6C3.66667 5.46957 3.84226 4.96086 4.15482 4.58579C4.46738 4.21071 4.89131 4 5.33333 4H18.6667C19.1087 4 19.5326 4.21071 19.8452 4.58579C20.1577 4.96086 20.3333 5.46957 20.3333 6V16C20.3333 16.5304 20.1577 17.0391 19.8452 17.4142C19.5326 17.7893 19.1087 18 18.6667 18H22V20H17C17 20.5304 16.8244 21.0391 16.5118 21.4142C16.1993 21.7893 15.7754 22 15.3333 22H11.1667C10.7246 22 10.3007 21.7893 9.98816 21.4142C9.67559 21.0391 9.5 20.5304 9.5 20H2ZM11.5833 20C11.4728 20 11.3668 20.0527 11.2887 20.1464C11.2106 20.2402 11.1667 20.3674 11.1667 20.5C11.1667 20.6326 11.2106 20.7598 11.2887 20.8536C11.3668 20.9473 11.4728 21 11.5833 21C11.6938 21 11.7998 20.9473 11.878 20.8536C11.9561 20.7598 12 20.6326 12 20.5C12 20.3674 11.9561 20.2402 11.878 20.1464C11.7998 20.0527 11.6938 20 11.5833 20ZM14.9167 20C14.8062 20 14.7002 20.0527 14.622 20.1464C14.5439 20.2402 14.5 20.3674 14.5 20.5C14.5 20.6326 14.5439 20.7598 14.622 20.8536C14.7002 20.9473 14.8062 21 14.9167 21C15.0272 21 15.1332 20.9473 15.2113 20.8536C15.2894 20.7598 15.3333 20.6326 15.3333 20.5C15.3333 20.3674 15.2894 20.2402 15.2113 20.1464C15.1332 20.0527 15.0272 20 14.9167 20ZM12.8333 20V21H13.6667V20H12.8333ZM11.1667 12V19H15.3333V12H11.1667Z" fill="black"/>
</svg>
