<svg width="24" height="24" viewBox="0 0 24 24" fill="none" xmlns="http://www.w3.org/2000/svg">
<path d="M10.1226 3C12.0116 3 13.8233 3.75044 15.159 5.08622C16.4947 6.422 17.2452 8.23371 17.2452 10.1228C17.2452 11.6838 16.7428 13.1271 15.8919 14.3013L20.6647 19.0743C20.8711 19.2776 20.991 19.5528 20.9995 19.8424C21.008 20.132 20.9044 20.4137 20.7103 20.6288C20.5162 20.8439 20.2465 20.9758 19.9576 20.997C19.6686 21.0182 19.3826 20.927 19.1593 20.7425L19.0738 20.6653L14.3009 15.8923C13.0864 16.7742 11.6235 17.2481 10.1226 17.2456C8.23355 17.2456 6.4219 16.4952 5.08615 15.1594C3.75041 13.8236 3 12.0119 3 10.1228C3 8.23371 3.75041 6.422 5.08615 5.08622C6.4219 3.75044 8.23355 3 10.1226 3ZM10.1226 5.2493C8.83009 5.2493 7.59053 5.76276 6.6766 6.67672C5.76267 7.59067 5.24923 8.83027 5.24923 10.1228C5.24923 11.4153 5.76267 12.6549 6.6766 13.5689C7.59053 14.4828 8.83009 14.9963 10.1226 14.9963C11.4151 14.9963 12.6546 14.4828 13.5686 13.5689C14.4825 12.6549 14.9959 11.4153 14.9959 10.1228C14.9959 8.83027 14.4825 7.59067 13.5686 6.67672C12.6546 5.76276 11.4151 5.2493 10.1226 5.2493Z" fill="black"/>
</svg>
