<svg width="24" height="24" viewBox="0 0 24 24" fill="none" xmlns="http://www.w3.org/2000/svg">
<path d="M3 5.4C3 4.07452 4.07452 3 5.4 3H9.22069C10.5462 3 11.6207 4.07452 11.6207 5.40001V9.2207C11.6207 10.5462 10.5462 11.6207 9.22069 11.6207H5.4C4.07452 11.6207 3 10.5462 3 9.22069V5.4Z" fill="#212529"/>
<path d="M12.3792 14.7795C12.3792 13.454 13.4537 12.3795 14.7792 12.3795H18.5998C19.9253 12.3795 20.9998 13.454 20.9998 14.7795V18.6002C20.9998 19.9257 19.9253 21.0002 18.5998 21.0002H14.7792C13.4537 21.0002 12.3792 19.9257 12.3792 18.6002V14.7795Z" fill="#212529"/>
<path fill-rule="evenodd" clip-rule="evenodd" d="M9.22069 12.9795H5.4C4.40589 12.9795 3.6 13.7854 3.6 14.7795V18.6002C3.6 19.5943 4.40589 20.4002 5.4 20.4002H9.22069C10.2148 20.4002 11.0207 19.5943 11.0207 18.6002V14.7795C11.0207 13.7854 10.2148 12.9795 9.22069 12.9795ZM5.4 12.3795C4.07452 12.3795 3 13.454 3 14.7795V18.6002C3 19.9257 4.07452 21.0002 5.4 21.0002H9.22069C10.5462 21.0002 11.6207 19.9257 11.6207 18.6002V14.7795C11.6207 13.454 10.5462 12.3795 9.22069 12.3795H5.4Z" fill="#212529"/>
<path fill-rule="evenodd" clip-rule="evenodd" d="M18.6 3.6H14.7793C13.7852 3.6 12.9793 4.40589 12.9793 5.4V9.2207C12.9793 10.2148 13.7852 11.0207 14.7793 11.0207H18.6C19.5941 11.0207 20.4 10.2148 20.4 9.2207V5.4C20.4 4.40589 19.5941 3.6 18.6 3.6ZM14.7793 3C13.4538 3 12.3793 4.07452 12.3793 5.4V9.2207C12.3793 10.5462 13.4538 11.6207 14.7793 11.6207H18.6C19.9255 11.6207 21 10.5462 21 9.2207V5.4C21 4.07452 19.9255 3 18.6 3H14.7793Z" fill="#212529"/>
</svg>
