<svg width="24" height="24" viewBox="0 0 24 24" fill="none" xmlns="http://www.w3.org/2000/svg">
<path d="M11.0438 2.6201C11.3326 1.67742 12.6671 1.67741 12.956 2.62009L14.4774 7.58483C14.6062 8.00497 14.9941 8.29183 15.4336 8.29183H19.9715C20.9201 8.29183 21.3357 9.48917 20.591 10.0768L16.906 12.9849C16.5774 13.2442 16.4451 13.6808 16.5744 14.0789L18.1023 18.7812C18.4017 19.7025 17.3472 20.4686 16.5635 19.8992L12.5877 17.0107C12.2372 16.756 11.7626 16.756 11.4121 17.0107L7.43641 19.8992C6.6527 20.4686 5.59821 19.7025 5.89757 18.7812L7.42505 14.0801C7.55459 13.6814 7.42172 13.2442 7.09224 12.9851L3.39618 10.0778C2.64995 9.49085 3.06501 8.29183 4.01442 8.29183H8.5663C9.00573 8.29183 9.39367 8.00496 9.52242 7.58481L11.0438 2.6201Z" fill="black"/>
</svg>
