<svg width="14" height="15" viewBox="0 0 14 15" fill="none" xmlns="http://www.w3.org/2000/svg">
<path d="M4.36807 11.6401L8.1492 7.99248L4.36807 4.34485C4.27785 4.25781 4.20628 4.15448 4.15746 4.04076C4.10863 3.92704 4.0835 3.80516 4.0835 3.68207C4.0835 3.55898 4.10863 3.43709 4.15746 3.32337C4.20628 3.20965 4.27785 3.10633 4.36807 3.01929C4.4583 2.93225 4.56541 2.86321 4.68329 2.81611C4.80117 2.769 4.92751 2.74476 5.05511 2.74476C5.1827 2.74476 5.30905 2.769 5.42693 2.81611C5.54481 2.86321 5.65192 2.93225 5.74214 3.01929L10.2152 7.3344C10.3055 7.42137 10.3772 7.52468 10.4261 7.63841C10.475 7.75214 10.5002 7.87405 10.5002 7.99718C10.5002 8.1203 10.475 8.24222 10.4261 8.35595C10.3772 8.46968 10.3055 8.57298 10.2152 8.65996L5.74214 12.9751C5.65199 13.0622 5.5449 13.1314 5.42701 13.1785C5.30912 13.2257 5.18274 13.25 5.05511 13.25C4.92748 13.25 4.8011 13.2257 4.68321 13.1785C4.56532 13.1314 4.45823 13.0622 4.36808 12.9751C3.99776 12.6084 3.98801 12.0068 4.36807 11.6401Z" fill="#386FA4"/>
</svg>
