<svg width="14" height="14" viewBox="0 0 14 14" fill="none" xmlns="http://www.w3.org/2000/svg">
<path d="M12.25 7C12.25 8.39239 11.6969 9.72775 10.7123 10.7123C9.72775 11.6969 8.39239 12.25 7 12.25C5.60761 12.25 4.27226 11.6969 3.28769 10.7123C2.30312 9.72775 1.75 8.39239 1.75 7C1.75 5.60761 2.30312 4.27226 3.28769 3.28769C4.27226 2.30312 5.60761 1.75 7 1.75C8.39239 1.75 9.72775 2.30312 10.7123 3.28769C11.6969 4.27226 12.25 5.60761 12.25 7ZM9.64469 5.01156C9.59781 4.96485 9.542 4.92807 9.48058 4.90342C9.41916 4.87878 9.35341 4.86677 9.28724 4.86811C9.22108 4.86946 9.15587 4.88414 9.09551 4.91127C9.03514 4.93839 8.98087 4.97742 8.93594 5.026L6.65678 7.92991L5.28325 6.55572C5.18995 6.46878 5.06654 6.42145 4.93903 6.4237C4.81152 6.42595 4.68986 6.4776 4.59969 6.56778C4.50951 6.65796 4.45785 6.77962 4.4556 6.90713C4.45335 7.03464 4.50068 7.15804 4.58763 7.25134L6.32406 8.98844C6.37084 9.03513 6.42655 9.07192 6.48785 9.09662C6.54916 9.12132 6.61481 9.13342 6.6809 9.13219C6.74698 9.13097 6.81214 9.11645 6.87249 9.08949C6.93284 9.06254 6.98714 9.02371 7.03216 8.97531L9.65191 5.70062C9.74122 5.60776 9.79056 5.48359 9.78933 5.35475C9.7881 5.22592 9.73641 5.1027 9.64534 5.01156H9.64469Z" fill="#386FA4"/>
</svg>
