<svg width="44" height="44" viewBox="0 0 44 44" fill="none" xmlns="http://www.w3.org/2000/svg">
<path d="M39.4463 12.2627C38.8774 10.9393 38.0571 9.74008 37.0313 8.73212C36.0047 7.72116 34.7944 6.91776 33.4661 6.36562C32.0887 5.7908 30.6114 5.49658 29.1199 5.50003C27.0274 5.50003 24.9859 6.07567 23.2118 7.16298C22.7874 7.42308 22.3842 7.70877 22.0022 8.02004C21.6202 7.70877 21.217 7.42308 20.7926 7.16298C19.0184 6.07567 16.9769 5.50003 14.8845 5.50003C13.3777 5.50003 11.9177 5.78998 10.5383 6.36562C9.20558 6.91993 8.00444 7.7173 6.97307 8.73212C5.94593 9.73894 5.12542 10.9385 4.55805 12.2627C3.96809 13.64 3.66675 15.1025 3.66675 16.6077C3.66675 18.0276 3.95536 19.5072 4.52834 21.0124C5.00795 22.2702 5.69553 23.575 6.5741 24.8926C7.96624 26.9777 9.88042 29.1523 12.2572 31.3568C16.196 35.011 20.0965 37.5353 20.262 37.6376L21.2679 38.2857C21.7136 38.5714 22.2866 38.5714 22.7322 38.2857L23.7381 37.6376C23.9036 37.531 27.7999 35.011 31.7429 31.3568C34.1197 29.1523 36.0339 26.9777 37.426 24.8926C38.3046 23.575 38.9964 22.2702 39.4718 21.0124C40.0448 19.5072 40.3334 18.0276 40.3334 16.6077C40.3376 15.1025 40.0363 13.64 39.4463 12.2627V12.2627Z" fill="#41A3D0"/>
</svg>
