<svg width="66" height="66" viewBox="0 0 66 66" fill="none" xmlns="http://www.w3.org/2000/svg">
<path d="M8.25 18.5625C8.25 15.8275 9.33649 13.2044 11.2705 11.2705C13.2044 9.33649 15.8275 8.25 18.5625 8.25H47.4375C50.1725 8.25 52.7956 9.33649 54.7295 11.2705C56.6635 13.2044 57.75 15.8275 57.75 18.5625V47.4375C57.75 50.1725 56.6635 52.7956 54.7295 54.7295C52.7956 56.6635 50.1725 57.75 47.4375 57.75H18.5625C15.8275 57.75 13.2044 56.6635 11.2705 54.7295C9.33649 52.7956 8.25 50.1725 8.25 47.4375V18.5625ZM30.9375 24.75C30.3905 24.75 29.8659 24.9673 29.4791 25.3541C29.0923 25.7409 28.875 26.2655 28.875 26.8125V43.3125C28.875 43.8595 28.6577 44.3841 28.2709 44.7709C27.8841 45.1577 27.3595 45.375 26.8125 45.375H22.6875C22.1405 45.375 21.6159 45.5923 21.2291 45.9791C20.8423 46.3659 20.625 46.8905 20.625 47.4375C20.625 47.9845 20.8423 48.5091 21.2291 48.8959C21.6159 49.2827 22.1405 49.5 22.6875 49.5H26.8125C28.4535 49.5 30.0273 48.8481 31.1877 47.6877C32.3481 46.5273 33 44.9535 33 43.3125V26.8125C33 26.2655 32.7827 25.7409 32.3959 25.3541C32.0091 24.9673 31.4845 24.75 30.9375 24.75ZM35.0625 30.9375V33C35.0625 34.641 35.7144 36.2148 36.8748 37.3752C38.0352 38.5356 39.609 39.1875 41.25 39.1875H43.3125C43.8595 39.1875 44.3841 39.4048 44.7709 39.7916C45.1577 40.1784 45.375 40.703 45.375 41.25V43.3125C45.375 43.8595 45.1577 44.3841 44.7709 44.7709C44.3841 45.1577 43.8595 45.375 43.3125 45.375H37.125C36.578 45.375 36.0534 45.5923 35.6666 45.9791C35.2798 46.3659 35.0625 46.8905 35.0625 47.4375C35.0625 47.9845 35.2798 48.5091 35.6666 48.8959C36.0534 49.2827 36.578 49.5 37.125 49.5H43.3125C44.9535 49.5 46.5273 48.8481 47.6877 47.6877C48.8481 46.5273 49.5 44.9535 49.5 43.3125V41.25C49.5 39.609 48.8481 38.0352 47.6877 36.8748C46.5273 35.7144 44.9535 35.0625 43.3125 35.0625H41.25C40.703 35.0625 40.1784 34.8452 39.7916 34.4584C39.4048 34.0716 39.1875 33.547 39.1875 33V30.9375C39.1875 30.3905 39.4048 29.8659 39.7916 29.4791C40.1784 29.0923 40.703 28.875 41.25 28.875H47.4375C47.9845 28.875 48.5091 28.6577 48.8959 28.2709C49.2827 27.8841 49.5 27.3595 49.5 26.8125C49.5 26.2655 49.2827 25.7409 48.8959 25.3541C48.5091 24.9673 47.9845 24.75 47.4375 24.75H41.25C39.609 24.75 38.0352 25.4019 36.8748 26.5623C35.7144 27.7227 35.0625 29.2965 35.0625 30.9375V30.9375Z" fill="#59A5D8"/>
</svg>
