<svg width="44" height="44" viewBox="0 0 44 44" fill="none" xmlns="http://www.w3.org/2000/svg">
<path d="M22 5.5C12.8882 5.5 5.5 12.8882 5.5 22C5.5 31.1118 12.8882 38.5 22 38.5C31.1118 38.5 38.5 31.1118 38.5 22C38.5 12.8882 31.1118 5.5 22 5.5ZM28.5006 27.0715L27.4472 28.5079C27.4243 28.5392 27.3954 28.5656 27.3623 28.5857C27.3291 28.6058 27.2923 28.6192 27.254 28.625C27.2156 28.6308 27.1765 28.629 27.1389 28.6196C27.1013 28.6103 27.0659 28.5936 27.0347 28.5705L20.943 24.1288C20.905 24.1015 20.8742 24.0656 20.853 24.0239C20.8319 23.9823 20.821 23.9361 20.8214 23.8894V13.75C20.8214 13.5879 20.954 13.4554 21.1161 13.4554H22.8876C23.0497 13.4554 23.1823 13.5879 23.1823 13.75V22.8655L28.4343 26.6627C28.5669 26.7548 28.5963 26.939 28.5006 27.0715Z" fill="#41A3D0"/>
</svg>