<svg xmlns="http://www.w3.org/2000/svg" style="display: none;">

    <!--====================================================================================================================
    Template Name:    Nuno | Responsive One Page HTML Template
    Template URI:     https://themeforest.net
    Author:           rvsbox
    Author URI:       https://themeforest.net/user/rvsbox
    Version:          1.0.0
    Created:          January 2022
    File Description: Main svg file of the template
    =====================================================================================================================-->


    <!--====================================================================================================================
    1. Arrow          (#num-1)
    2. Bootstrap      (#num-2)
    3. Calendar       (#num-3)
    4. Calendar-fill  (#num-4)
    5. Check          (#num-5)
    6. Circle         (#num-6)
    7. Circle-fill    (#num-7)
    8. Clock          (#num-8)
    9. Clock-fill     (#num-9)
    10. Close         (#num-10)
    11. Coffee        (#num-11)
    12. Comment       (#num-12)
    13. Comment-fill  (#num-13)
    14. Design        (#num-14)
    15. Email         (#num-15)
    16. Heart         (#num-16)
    17. JS            (#num-17)
    18. Like          (#num-18)
    19. Like-fill     (#num-19)
    20. Limit         (#num-20)
    21. Location      (#num-21)
    22. Menu          (#num-22)
    23. Menu-sub      (#num-23)
    24. Person        (#num-24)
    25. Phone         (#num-25)
    26. Php           (#num-26)
    27. Portfolio     (#num-27)
    28. Responsive    (#num-28)
    29. Search        (#num-29)
    30. Skype         (#num-30)
    31. Slider        (#num-31)
    32. Soc-behance   (#num-32)
    33. Soc-dribbble  (#num-33)
    34. Soc-facebook  (#num-34)
    35. Soc-instagram (#num-35)
    36. Soc-twitter   (#num-36)
    37. Sq-1          (#num-37)
    38. Sq-2          (#num-38)
    39. Sq-3          (#num-39)
    40. Sq-4          (#num-40)
    41. Star          (#num-41)
    42. Star-fill     (#num-42)
    43. Quotes        (#num-43)
    =====================================================================================================================-->


    <!-- Arrow - num-1 -->
    <symbol id="num-1" viewBox="0 0 24 24">
        <path d="M7.48785 18.2416L13.9698 11.9916L7.48785 5.74164C7.33318 5.59251 7.21049 5.41546 7.12679 5.22061C7.04308 5.02576 7 4.81692 7 4.60602C7 4.39511 7.04308 4.18627 7.12679 3.99142C7.21049 3.79657 7.33318 3.61952 7.48785 3.47039C7.64252 3.32126 7.82613 3.20296 8.02822 3.12225C8.2303 3.04154 8.44689 3 8.66562 3C8.88435 3 9.10094 3.04154 9.30303 3.12225C9.50511 3.20296 9.68873 3.32126 9.84339 3.47039L17.5114 10.864C17.6663 11.0131 17.7892 11.1901 17.873 11.3849C17.9568 11.5798 18 11.7887 18 11.9997C18 12.2106 17.9568 12.4195 17.873 12.6144C17.7892 12.8093 17.6663 12.9863 17.5114 13.1353L9.84339 20.5289C9.68884 20.6783 9.50526 20.7967 9.30316 20.8776C9.10106 20.9584 8.88442 21 8.66562 21C8.44683 21 8.23018 20.9584 8.02808 20.8776C7.82598 20.7967 7.6424 20.6783 7.48785 20.5289C6.85302 19.9007 6.83632 18.8698 7.48785 18.2416Z"
              fill="#"/>
    </symbol>

    <!-- Bootstrap - num-2 -->
    <symbol id="num-2" viewBox="0 0 24 24">
        <g fill="#">
            <path d="M10.1697 11.0156V8.24023H12.1722C13.2668 8.24023 13.9069 8.75436 13.9069 9.63186C13.9069 10.5341 13.2274 11.0156 11.9224 11.0156H10.1697ZM10.1697 15.2479H12.3049C13.6369 15.2479 14.3412 14.7079 14.3412 13.6987C14.3412 12.7031 13.6099 12.1822 12.2194 12.1822H10.1697V15.2479Z"/>
            <path d="M7.5 3C6.30653 3 5.16193 3.47411 4.31802 4.31802C3.47411 5.16193 3 6.30653 3 7.5V16.5C3 17.6935 3.47411 18.8381 4.31802 19.682C5.16193 20.5259 6.30653 21 7.5 21H16.5C17.6935 21 18.8381 20.5259 19.682 19.682C20.5259 18.8381 21 17.6935 21 16.5V7.5C21 6.30653 20.5259 5.16193 19.682 4.31802C18.8381 3.47411 17.6935 3 16.5 3H7.5ZM8.6925 16.5V6.98813H12.5164C14.3018 6.98813 15.3772 7.89825 15.3772 9.36188C15.3772 10.3564 14.646 11.2463 13.7089 11.4049V11.5174C14.9948 11.649 15.8509 12.5647 15.8509 13.8045C15.8509 15.4785 14.6314 16.5 12.6019 16.5H8.6925Z"/>
        </g>
    </symbol>

    <!-- Calendar - num-3 -->
    <symbol id="num-3" viewBox="0 0 24 24">
        <path d="M20.28 4.62H16.5V3.18C16.5 3.081 16.419 3 16.32 3H15.06C14.961 3 14.88 3.081 14.88 3.18V4.62H9.12V3.18C9.12 3.081 9.039 3 8.94 3H7.68C7.581 3 7.5 3.081 7.5 3.18V4.62H3.72C3.32175 4.62 3 4.94175 3 5.34V20.28C3 20.6783 3.32175 21 3.72 21H20.28C20.6783 21 21 20.6783 21 20.28V5.34C21 4.94175 20.6783 4.62 20.28 4.62ZM19.38 19.38H4.62V10.83H19.38V19.38ZM4.62 9.3V6.24H7.5V7.32C7.5 7.419 7.581 7.5 7.68 7.5H8.94C9.039 7.5 9.12 7.419 9.12 7.32V6.24H14.88V7.32C14.88 7.419 14.961 7.5 15.06 7.5H16.32C16.419 7.5 16.5 7.419 16.5 7.32V6.24H19.38V9.3H4.62Z"
              fill="#"/>
    </symbol>

    <!-- Calendar-fill - num-4 -->
    <symbol id="num-4" viewBox="0 0 24 24">
        <path d="M3 20.28C3 20.6783 3.32175 21 3.72 21H20.28C20.6783 21 21 20.6783 21 20.28V10.83H3V20.28ZM20.28 4.62H16.5V3.18C16.5 3.081 16.419 3 16.32 3H15.06C14.961 3 14.88 3.081 14.88 3.18V4.62H9.12V3.18C9.12 3.081 9.039 3 8.94 3H7.68C7.581 3 7.5 3.081 7.5 3.18V4.62H3.72C3.32175 4.62 3 4.94175 3 5.34V9.3H21V5.34C21 4.94175 20.6783 4.62 20.28 4.62Z"
              fill="#"/>
    </symbol>

    <!-- Check - num-5 -->
    <symbol id="num-5" viewBox="0 0 24 24">
        <path d="M21 12C21 14.3869 20.0518 16.6761 18.364 18.364C16.6761 20.0518 14.3869 21 12 21C9.61305 21 7.32387 20.0518 5.63604 18.364C3.94821 16.6761 3 14.3869 3 12C3 9.61305 3.94821 7.32387 5.63604 5.63604C7.32387 3.94821 9.61305 3 12 3C14.3869 3 16.6761 3.94821 18.364 5.63604C20.0518 7.32387 21 9.61305 21 12ZM16.5337 8.59125C16.4534 8.51117 16.3577 8.44812 16.2524 8.40587C16.1471 8.36361 16.0344 8.34303 15.921 8.34534C15.8076 8.34765 15.6958 8.37281 15.5923 8.41931C15.4888 8.46582 15.3958 8.53271 15.3187 8.616L11.4116 13.5941L9.057 11.2384C8.89705 11.0893 8.6855 11.0082 8.46691 11.0121C8.24832 11.0159 8.03976 11.1045 7.88518 11.2591C7.73059 11.4136 7.64204 11.6222 7.63818 11.8408C7.63432 12.0594 7.71546 12.2709 7.8645 12.4309L10.8412 15.4087C10.9214 15.4888 11.0169 15.5519 11.122 15.5942C11.2271 15.6366 11.3397 15.6573 11.453 15.6552C11.5662 15.6531 11.678 15.6282 11.7814 15.582C11.8849 15.5358 11.978 15.4692 12.0551 15.3863L16.5461 9.7725C16.6992 9.61331 16.7838 9.40043 16.7817 9.17958C16.7796 8.95872 16.691 8.74749 16.5349 8.59125H16.5337Z"
              fill="#"/>
    </symbol>

    <!-- Circle - num-6 -->
    <symbol id="num-6" viewBox="0 0 24 24">
        <path fill-rule="evenodd" clip-rule="evenodd" d="M12 21C16.9706 21 21 16.9706 21 12C21 7.02944 16.9706 3 12 3C7.02944 3 3 7.02944 3 12C3 16.9706 7.02944 21 12 21ZM12 19C15.866 19 19 15.866 19 12C19 8.13401 15.866 5 12 5C8.13401 5 5 8.13401 5 12C5 15.866 8.13401 19 12 19Z"
              fill="#"/>
    </symbol>

    <!-- Circle-fill - num-7 -->
    <symbol id="num-7" viewBox="0 0 24 24">
        <path d="M12 21C16.9706 21 21 16.9706 21 12C21 7.02944 16.9706 3 12 3C7.02944 3 3 7.02944 3 12C3 16.9706 7.02944 21 12 21Z"
              fill="#"/>
    </symbol>

    <!-- Clock - num-8 -->
    <symbol id="num-8" viewBox="0 0 24 24">
        <g fill="#">
            <path d="M12 3C7.02991 3 3 7.02991 3 12C3 16.9701 7.02991 21 12 21C16.9701 21 21 16.9701 21 12C21 7.02991 16.9701 3 12 3ZM12 19.4732C7.87366 19.4732 4.52679 16.1263 4.52679 12C4.52679 7.87366 7.87366 4.52679 12 4.52679C16.1263 4.52679 19.4732 7.87366 19.4732 12C19.4732 16.1263 16.1263 19.4732 12 19.4732Z"/>
            <path d="M16.5852 13.7705L13.5772 11.5957V6.37505C13.5772 6.28224 13.5013 6.2063 13.4085 6.2063H12.3938C12.301 6.2063 12.2251 6.28224 12.2251 6.37505V12.1843C12.2251 12.2391 12.2504 12.2897 12.2947 12.3214L15.7836 14.8653C15.8595 14.9201 15.965 14.9032 16.0199 14.8294L16.6231 14.0067C16.678 13.9287 16.6611 13.8232 16.5852 13.7705Z"/>
        </g>
    </symbol>

    <!-- Clock-fill - num-9 -->
    <symbol id="num-9" viewBox="0 0 24 24">
        <path d="M12 3C7.02991 3 3 7.02991 3 12C3 16.9701 7.02991 21 12 21C16.9701 21 21 16.9701 21 12C21 7.02991 16.9701 3 12 3ZM15.5458 14.7663L14.9712 15.5498C14.9587 15.5668 14.943 15.5813 14.9249 15.5922C14.9068 15.6032 14.8867 15.6104 14.8658 15.6136C14.8449 15.6168 14.8236 15.6158 14.803 15.6107C14.7825 15.6056 14.7632 15.5965 14.7462 15.5839L11.4234 13.1612C11.4027 13.1463 11.3859 13.1267 11.3744 13.104C11.3628 13.0812 11.3569 13.0561 11.3571 13.0306V7.5C11.3571 7.41161 11.4295 7.33929 11.5179 7.33929H12.4842C12.5725 7.33929 12.6449 7.41161 12.6449 7.5V12.4721L15.5096 14.5433C15.5819 14.5935 15.598 14.694 15.5458 14.7663Z"
              fill="#"/>
    </symbol>

    <!-- Close - num-10 -->
    <symbol id="num-10" viewBox="0 0 24 24">
        <path d="M21 17.4848C21 17.8889 20.8586 18.2323 20.5758 18.5152L18.5152 20.5758C18.2323 20.8586 17.8889 21 17.4848 21C17.0808 21 16.7374 20.8586 16.4545 20.5758L12 16.1212L7.54545 20.5758C7.26263 20.8586 6.91919 21 6.51515 21C6.11111 21 5.76768 20.8586 5.48485 20.5758L3.42424 18.5152C3.14141 18.2323 3 17.8889 3 17.4848C3 17.0808 3.14141 16.7374 3.42424 16.4545L7.87879 12L3.42424 7.54545C3.14141 7.26263 3 6.91919 3 6.51515C3 6.11111 3.14141 5.76768 3.42424 5.48485L5.48485 3.42424C5.76768 3.14141 6.11111 3 6.51515 3C6.91919 3 7.26263 3.14141 7.54545 3.42424L12 7.87879L16.4545 3.42424C16.7374 3.14141 17.0808 3 17.4848 3C17.8889 3 18.2323 3.14141 18.5152 3.42424L20.5758 5.48485C20.8586 5.76768 21 6.11111 21 6.51515C21 6.91919 20.8586 7.26263 20.5758 7.54545L16.1212 12L20.5758 16.4545C20.8586 16.7374 21 17.0808 21 17.4848Z"
              fill="#"/>
    </symbol>

    <!-- Coffee - num-11 -->
    <symbol id="num-11" viewBox="0 0 24 24">
        <path d="M4.88889 3H6.77778V5.84211H4.88889V3ZM8.66667 3H10.5556V5.84211H8.66667V3ZM12.4444 3H14.3333V5.84211H12.4444V3ZM18.1111 9.63158H16.2222V8.68421C16.2222 8.43295 16.1227 8.19199 15.9456 8.01432C15.7685 7.83665 15.5283 7.73684 15.2778 7.73684H3.94444C3.69396 7.73684 3.45374 7.83665 3.27662 8.01432C3.0995 8.19199 3 8.43295 3 8.68421V18.1579C3 18.9117 3.29851 19.6346 3.82986 20.1676C4.36122 20.7006 5.08189 21 5.83333 21H13.3889C14.1403 21 14.861 20.7006 15.3924 20.1676C15.9237 19.6346 16.2222 18.9117 16.2222 18.1579H18.1111C19.1528 18.1579 20 17.3081 20 16.2632V11.5263C20 10.4814 19.1528 9.63158 18.1111 9.63158ZM16.2222 16.2632V11.5263H18.1111L18.113 16.2632H16.2222Z"
              fill="#"/>
    </symbol>

    <!-- Comment - num-12 -->
    <symbol id="num-12" viewBox="0 0 24 24">
        <path d="M5.0875 17.25C4.26864 17.25 3.48333 16.9247 2.90431 16.3457C2.32529 15.7667 2 14.9814 2 14.1625V6.0875C2 5.26864 2.32529 4.48333 2.90431 3.90431C3.48333 3.32529 4.26864 3 5.0875 3H17.9125C18.318 3 18.7194 3.07986 19.094 3.23502C19.4686 3.39018 19.809 3.61761 20.0957 3.90431C20.3824 4.19101 20.6098 4.53137 20.765 4.90596C20.9201 5.28056 21 5.68204 21 6.0875V14.1625C21 14.568 20.9201 14.9694 20.765 15.344C20.6098 15.7186 20.3824 16.059 20.0957 16.3457C19.809 16.6324 19.4686 16.8598 19.094 17.015C18.7194 17.1701 18.318 17.25 17.9125 17.25H12.4614L7.7 20.8125C7.52357 20.9445 7.31388 21.0249 7.09438 21.0446C6.87489 21.0642 6.65426 21.0224 6.45717 20.9238C6.26008 20.8252 6.09432 20.6737 5.97843 20.4863C5.86253 20.2989 5.80108 20.0829 5.80095 19.8625V17.25H5.08845H5.0875ZM11.9883 15.825H17.9125C18.3534 15.825 18.7763 15.6498 19.0881 15.3381C19.3998 15.0263 19.575 14.6034 19.575 14.1625V6.0875C19.575 5.64658 19.3998 5.22371 19.0881 4.91194C18.7763 4.60016 18.3534 4.425 17.9125 4.425H5.0875C4.64658 4.425 4.22371 4.60016 3.91194 4.91194C3.60016 5.22371 3.425 5.64658 3.425 6.0875V14.1625C3.425 15.0802 4.1698 15.825 5.0875 15.825H7.22405V19.3875L11.9883 15.825Z"
              fill="#"/>
    </symbol>

    <!-- Comment-fill - num-13 -->
    <symbol id="num-13" viewBox="0 0 24 24">
        <path d="M5.0875 17.25C4.26864 17.25 3.48333 16.9247 2.90431 16.3457C2.32529 15.7667 2 14.9814 2 14.1625V6.0875C2 5.26864 2.32529 4.48333 2.90431 3.90431C3.48333 3.32529 4.26864 3 5.0875 3H17.9125C18.318 3 18.7194 3.07986 19.094 3.23502C19.4686 3.39018 19.809 3.61761 20.0957 3.90431C20.3824 4.19101 20.6098 4.53137 20.765 4.90596C20.9201 5.28056 21 5.68204 21 6.0875V14.1625C21 14.568 20.9201 14.9694 20.765 15.344C20.6098 15.7186 20.3824 16.059 20.0957 16.3457C19.809 16.6324 19.4686 16.8598 19.094 17.015C18.7194 17.1701 18.318 17.25 17.9125 17.25H12.4167L7.2991 20.8762C7.15699 20.9768 6.98995 21.0365 6.81622 21.0486C6.6425 21.0607 6.46879 21.0249 6.31406 20.945C6.15933 20.8651 6.02954 20.7442 5.93888 20.5955C5.84823 20.4468 5.80018 20.276 5.8 20.1019V17.25H5.0875Z"
              fill="#"/>
    </symbol>

    <!-- Design - num-14 -->
    <symbol id="num-14" viewBox="0 0 24 24">
        <path d="M16.7883 7.35471C17.2336 6.91174 17.2336 6.18987 16.7883 5.7469L15.15 4.10862L15.1523 4.11096C14.7187 3.67737 13.9734 2.93206 12.9187 1.87971C12.4219 1.39456 11.618 1.39924 11.1258 1.89143L1.89608 11.1141C1.77799 11.2314 1.68427 11.3709 1.62032 11.5245C1.55636 11.6782 1.52344 11.843 1.52344 12.0094C1.52344 12.1758 1.55636 12.3406 1.62032 12.4943C1.68427 12.6479 1.77799 12.7874 1.89608 12.9047L11.1234 22.125C11.3613 22.3625 11.6838 22.4959 12.0199 22.4959C12.3561 22.4959 12.6785 22.3625 12.9164 22.125L16.7859 18.2578C17.2312 17.8149 17.2312 17.093 16.7859 16.65C16.572 16.4372 16.2826 16.3177 15.9809 16.3177C15.6791 16.3177 15.3897 16.4372 15.1758 16.65L12.2461 19.5844C12.1242 19.7063 11.9344 19.7063 11.8125 19.5844L4.44139 12.2203C4.31951 12.0985 4.31951 11.9086 4.44139 11.7867L11.8101 4.42268C11.8195 4.41331 11.8312 4.40628 11.8406 4.3969C11.9625 4.30081 12.1312 4.31018 12.2437 4.42268L15.1781 7.35471C15.6234 7.80003 16.3453 7.80003 16.7883 7.35471ZM9.57655 12.0563C9.57655 12.7164 9.83904 13.3495 10.3063 13.8163C10.7735 14.2831 11.4072 14.5453 12.068 14.5453C12.7287 14.5453 13.3624 14.2831 13.8297 13.8163C14.2969 13.3495 14.5594 12.7164 14.5594 12.0563C14.5594 11.3961 14.2969 10.763 13.8297 10.2962C13.3624 9.82945 12.7287 9.56721 12.068 9.56721C11.4072 9.56721 10.7735 9.82945 10.3063 10.2962C9.83904 10.763 9.57655 11.3961 9.57655 12.0563ZM22.1438 11.1516L19.2633 8.28518C18.818 7.84221 18.0961 7.84221 17.6531 8.28753C17.5473 8.39293 17.4632 8.5182 17.4059 8.65616C17.3486 8.79412 17.3191 8.94204 17.3191 9.09143C17.3191 9.24083 17.3486 9.38875 17.4059 9.5267C17.4632 9.66466 17.5473 9.78994 17.6531 9.89534L19.5984 11.8383C19.7203 11.9602 19.7203 12.15 19.5984 12.2719L17.6812 14.1867C17.5754 14.2921 17.4914 14.4174 17.434 14.5554C17.3767 14.6933 17.3472 14.8413 17.3472 14.9907C17.3472 15.14 17.3767 15.288 17.434 15.4259C17.4914 15.5639 17.5754 15.6892 17.6812 15.7946C17.8951 16.0074 18.1846 16.1269 18.4863 16.1269C18.7881 16.1269 19.0775 16.0074 19.2914 15.7946L22.1461 12.9422C22.2638 12.8246 22.3571 12.685 22.4207 12.5313C22.4843 12.3775 22.5169 12.2128 22.5167 12.0464C22.5165 11.8801 22.4834 11.7154 22.4194 11.5618C22.3554 11.4083 22.2617 11.2689 22.1438 11.1516Z"
              fill="#"/>
    </symbol>

    <!-- Email - num-15 -->
    <symbol id="num-15" viewBox="0 0 24 24">
        <path d="M12 12L3 7.27865V6.16667C3 5.83854 3.11133 5.56207 3.33398 5.33724C3.55664 5.11241 3.82031 5 4.125 5H19.875C20.1797 5 20.4434 5.11241 20.666 5.33724C20.8887 5.56207 21 5.83854 21 6.16667V7.27865L12 12ZM11.4375 13.1667H12.5625L21 8.6276V17.8333C21 18.1493 20.8887 18.4227 20.666 18.6536C20.4434 18.8845 20.1797 19 19.875 19H4.125C3.82031 19 3.55664 18.8845 3.33398 18.6536C3.11133 18.4227 3 18.1493 3 17.8333V8.6276L11.4375 13.1667Z"
              fill="#"/>
    </symbol>

    <!-- Heart - num-16 -->
    <symbol id="num-16" viewBox="0 0 24 24">
        <path d="M21.5161 6.68874C21.2058 5.9669 20.7584 5.31277 20.1988 4.76298C19.6389 4.21154 18.9787 3.77332 18.2542 3.47215C17.5029 3.15862 16.6971 2.99814 15.8835 3.00002C14.7422 3.00002 13.6286 3.314 12.6609 3.90708C12.4294 4.04895 12.2095 4.20478 12.0011 4.37457C11.7928 4.20478 11.5729 4.04895 11.3413 3.90708C10.3736 3.314 9.26009 3.00002 8.11876 3.00002C7.2969 3.00002 6.50052 3.15817 5.74811 3.47215C5.02118 3.77451 4.36601 4.20943 3.80345 4.76298C3.24319 5.31215 2.79564 5.96643 2.48617 6.68874C2.16437 7.43998 2 8.23773 2 9.05874C2 9.83323 2.15743 10.6403 2.46996 11.4613C2.73157 12.1474 3.10661 12.8591 3.58583 13.5778C4.34518 14.7151 5.38928 15.9013 6.68572 17.1037C8.83412 19.0969 10.9617 20.4738 11.052 20.5296L11.6006 20.8831C11.8437 21.039 12.1563 21.039 12.3993 20.8831L12.948 20.5296C13.0383 20.4715 15.1635 19.0969 17.3143 17.1037C18.6107 15.9013 19.6548 14.7151 20.4141 13.5778C20.8934 12.8591 21.2707 12.1474 21.53 11.4613C21.8426 10.6403 22 9.83323 22 9.05874C22.0023 8.23773 21.8379 7.43998 21.5161 6.68874Z"
              fill="#"/>
    </symbol>

    <!-- JS - num-17 -->
    <symbol id="num-17" viewBox="0 0 24 24">
        <path d="M3 6.75C3 5.75544 3.39509 4.80161 4.09835 4.09835C4.80161 3.39509 5.75544 3 6.75 3H17.25C18.2446 3 19.1984 3.39509 19.9016 4.09835C20.6049 4.80161 21 5.75544 21 6.75V17.25C21 18.2446 20.6049 19.1984 19.9016 19.9016C19.1984 20.6049 18.2446 21 17.25 21H6.75C5.75544 21 4.80161 20.6049 4.09835 19.9016C3.39509 19.1984 3 18.2446 3 17.25V6.75ZM11.25 9C11.0511 9 10.8603 9.07902 10.7197 9.21967C10.579 9.36032 10.5 9.55109 10.5 9.75V15.75C10.5 15.9489 10.421 16.1397 10.2803 16.2803C10.1397 16.421 9.94891 16.5 9.75 16.5H8.25C8.05109 16.5 7.86032 16.579 7.71967 16.7197C7.57902 16.8603 7.5 17.0511 7.5 17.25C7.5 17.4489 7.57902 17.6397 7.71967 17.7803C7.86032 17.921 8.05109 18 8.25 18H9.75C10.3467 18 10.919 17.7629 11.341 17.341C11.7629 16.919 12 16.3467 12 15.75V9.75C12 9.55109 11.921 9.36032 11.7803 9.21967C11.6397 9.07902 11.4489 9 11.25 9ZM12.75 11.25V12C12.75 12.5967 12.9871 13.169 13.409 13.591C13.831 14.0129 14.4033 14.25 15 14.25H15.75C15.9489 14.25 16.1397 14.329 16.2803 14.4697C16.421 14.6103 16.5 14.8011 16.5 15V15.75C16.5 15.9489 16.421 16.1397 16.2803 16.2803C16.1397 16.421 15.9489 16.5 15.75 16.5H13.5C13.3011 16.5 13.1103 16.579 12.9697 16.7197C12.829 16.8603 12.75 17.0511 12.75 17.25C12.75 17.4489 12.829 17.6397 12.9697 17.7803C13.1103 17.921 13.3011 18 13.5 18H15.75C16.3467 18 16.919 17.7629 17.341 17.341C17.7629 16.919 18 16.3467 18 15.75V15C18 14.4033 17.7629 13.831 17.341 13.409C16.919 12.9871 16.3467 12.75 15.75 12.75H15C14.8011 12.75 14.6103 12.671 14.4697 12.5303C14.329 12.3897 14.25 12.1989 14.25 12V11.25C14.25 11.0511 14.329 10.8603 14.4697 10.7197C14.6103 10.579 14.8011 10.5 15 10.5H17.25C17.4489 10.5 17.6397 10.421 17.7803 10.2803C17.921 10.1397 18 9.94891 18 9.75C18 9.55109 17.921 9.36032 17.7803 9.21967C17.6397 9.07902 17.4489 9 17.25 9H15C14.4033 9 13.831 9.23705 13.409 9.65901C12.9871 10.081 12.75 10.6533 12.75 11.25Z"
              fill="#"/>
    </symbol>

    <!-- Like - num-18 -->
    <symbol id="num-18" viewBox="0 0 24 24">
        <path d="M15.3425 6.56804C15.3425 4.49299 14.379 3 12.8011 3C11.9339 3 11.6364 3.51154 11.3254 4.69947C11.262 4.94505 11.2308 5.06486 11.1978 5.18212C11.1124 5.48718 10.9637 6.00637 10.7524 6.73799C10.7466 6.75753 10.7381 6.77613 10.727 6.79322L8.30562 10.6051C7.73231 11.5065 6.88657 12.1993 5.89266 12.5816L5.49289 12.7354C4.98245 12.932 4.55724 13.3032 4.29199 13.7837C4.02675 14.2642 3.93844 14.8233 4.04258 15.3628L4.38403 17.1354C4.48395 17.6535 4.72946 18.132 5.0915 18.5143C5.45353 18.8965 5.91692 19.1664 6.4268 19.292L12.8738 20.881C13.9016 21.1342 14.9872 20.9691 15.8946 20.4217C16.802 19.8743 17.4577 18.9888 17.7191 17.9579L18.9151 13.2419C19.0183 12.8342 19.0276 12.4081 18.9421 11.9962C18.8566 11.5844 18.6786 11.1976 18.4218 10.8654C18.165 10.5333 17.836 10.2645 17.4601 10.0796C17.0842 9.89474 16.6712 9.79868 16.2528 9.79874H14.7129C15.1321 8.41112 15.3434 7.34045 15.3434 6.56804H15.3425ZM5.28498 15.1206C5.23752 14.8753 5.27761 14.6211 5.39818 14.4026C5.51876 14.1841 5.7121 14.0153 5.94421 13.9259L6.34482 13.773C7.59199 13.2928 8.6531 12.4231 9.37223 11.2917L11.7953 7.47981C11.8714 7.36 11.9297 7.22999 11.9686 7.09318C12.1816 6.35816 12.3303 5.83642 12.4165 5.52712C12.4537 5.39711 12.4884 5.2654 12.5509 5.02407C12.7115 4.41056 12.7901 4.2746 12.8002 4.2746C13.5338 4.2746 14.0739 5.11075 14.0739 6.56889C14.0739 7.32006 13.7984 8.55303 13.2423 10.2347C13.2105 10.3304 13.2019 10.4324 13.217 10.5321C13.2322 10.6319 13.2707 10.7267 13.3293 10.8085C13.388 10.8904 13.4652 10.9571 13.5545 11.0032C13.6439 11.0492 13.7428 11.0733 13.8432 11.0733H16.2519C16.4772 11.0735 16.6995 11.1253 16.9018 11.225C17.1041 11.3246 17.2812 11.4693 17.4194 11.6481C17.5577 11.827 17.6535 12.0352 17.6996 12.2569C17.7457 12.4786 17.7408 12.7079 17.6853 12.9275L16.4894 17.6435C16.3104 18.3489 15.8617 18.9546 15.2407 19.329C14.6198 19.7035 13.877 19.8163 13.1738 19.6429L6.72684 18.0539C6.45243 17.9863 6.20304 17.841 6.00818 17.6353C5.81332 17.4296 5.68114 17.1721 5.62727 16.8932L5.28498 15.1206Z"
              fill="#"/>
    </symbol>

    <!-- Like-fill - num-19 -->
    <symbol id="num-19" viewBox="0 0 24 24">
        <path d="M14.6432 3.45876C13.7584 2.58427 12.3267 3.05442 11.9513 4.07519C11.6412 4.91729 11.2382 5.92657 10.8462 6.66942C9.67239 8.89065 8.98805 10.1538 7.09894 11.7356C6.82206 11.9556 6.50701 12.1288 6.16768 12.2476C4.91639 12.7136 3.74262 13.936 4.04935 15.3872L4.44024 17.2313C4.54102 17.707 4.78026 18.1469 5.13114 18.5016C5.48202 18.8563 5.93067 19.1117 6.42679 19.2394L12.6279 20.8348C13.2941 21.006 13.9907 21.0447 14.6737 20.9484C15.3566 20.8521 16.0108 20.623 16.5949 20.2755C17.179 19.9281 17.6802 19.4699 18.0667 18.93C18.4532 18.3901 18.7165 17.7803 18.84 17.1393L19.5985 13.2098C19.6856 12.7581 19.6665 12.2938 19.5424 11.8498C19.4184 11.4058 19.1924 10.9929 18.8806 10.6404C18.5688 10.2879 18.1787 10.0043 17.7379 9.80971C17.2971 9.61514 16.8163 9.51433 16.3297 9.51439H15.3519L15.363 9.46007C15.4516 9.03274 15.5579 8.44661 15.6287 7.80615C15.7007 7.16883 15.7395 6.46359 15.683 5.80746C15.6276 5.16387 15.4792 4.50251 15.1249 3.99996C14.9802 3.80752 14.8191 3.62652 14.6432 3.45876Z"
              fill="#"/>
    </symbol>

    <!-- Limit - num-20 -->
    <symbol id="num-20" viewBox="0 0 24 24">
        <path d="M8.37498 17.411C8.97248 16.1456 9.50498 14.8517 9.75915 13.389C9.85832 14.9164 10.7592 16.275 11.1925 17.7387C11.3583 18.4461 11.3708 19.1787 11.1033 19.9097C10.8125 20.7062 10.3442 21.3876 9.78498 22.0001C8.27331 20.3483 7.80831 18.8141 8.37498 17.411ZM17.9975 20.5743C17.31 21.0978 16.4125 21.1759 15.7109 20.8356C15.7109 20.8356 15.52 20.7575 15.345 20.5499C14.0117 18.9805 12.6658 17.4202 11.3217 15.8591C12.5142 16.0809 13.8217 15.4911 14.4925 14.4207C15.1675 13.4024 15.14 11.9489 14.5058 10.9306C13.7425 9.81814 12.26 9.45349 11.0142 9.62405C8.85748 9.93744 7.3083 11.9111 6.8258 13.9779C6.32996 16.3296 6.68747 18.5486 7.45997 20.6424C7.64181 21.1022 7.88156 21.5365 8.17331 21.9346C5.90079 20.9137 3.89245 19.0359 2.83828 16.5094C1.6716 13.7939 1.69493 10.3559 3.08328 7.59834C4.17328 5.46761 6.10246 3.49399 8.49081 2.66052C9.45498 2.24882 10.5492 2.03373 11.6658 2.00012H12.2625C13.8542 2.04801 15.4609 2.46223 16.7917 3.23185C19.7484 4.75008 21.9851 8.52508 21.9951 11.8976C22.0976 15.3869 20.6 18.5478 17.9975 20.5743Z"
              fill="#"/>
    </symbol>

    <!-- Location - num-21 -->
    <symbol id="num-21" viewBox="0 0 24 24">
        <path d="M17.6572 16.4497C19.1576 14.972 20.0004 12.9681 20.0004 10.8787C20.0004 8.78938 19.1576 6.78553 17.6572 5.30775C16.9145 4.57614 16.0326 3.99576 15.0619 3.59978C14.0913 3.20381 13.0509 3 12.0002 3C10.9495 3 9.90913 3.20381 8.93848 3.59978C7.96784 3.99576 7.08597 4.57614 6.34327 5.30775C4.84286 6.78553 4 8.78938 4 10.8787C4 12.9681 4.84286 14.972 6.34327 16.4497L8.08149 18.1361L10.4163 20.3692L10.5683 20.502C11.4539 21.2085 12.751 21.1635 13.5853 20.3692L16.3681 17.703L17.6572 16.4497ZM12.0002 14.2504C11.0909 14.2504 10.2189 13.8948 9.57593 13.2619C8.93297 12.6289 8.57176 11.7705 8.57176 10.8754C8.57176 9.98026 8.93297 9.12182 9.57593 8.48889C10.2189 7.85595 11.0909 7.50037 12.0002 7.50037C12.9095 7.50037 13.7815 7.85595 14.4245 8.48889C15.0675 9.12182 15.4287 9.98026 15.4287 10.8754C15.4287 11.7705 15.0675 12.6289 14.4245 13.2619C13.7815 13.8948 12.9095 14.2504 12.0002 14.2504Z"
              fill="#"/>
    </symbol>

    <!-- Menu - num-22 -->
    <symbol id="num-22" viewBox="0 0 24 24">
        <path fill-rule="evenodd" clip-rule="evenodd"
              d="M2 6C2 5.46957 2.21071 4.96086 2.58579 4.58579C2.96086 4.21071 3.46957 4 4 4H20C20.5304 4 21.0391 4.21071 21.4142 4.58579C21.7893 4.96086 22 5.46957 22 6C22 6.53043 21.7893 7.03914 21.4142 7.41421C21.0391 7.78929 20.5304 8 20 8H4C3.46957 8 2.96086 7.78929 2.58579 7.41421C2.21071 7.03914 2 6.53043 2 6ZM2 12C2 11.4696 2.21071 10.9609 2.58579 10.5858C2.96086 10.2107 3.46957 10 4 10H20C20.5304 10 21.0391 10.2107 21.4142 10.5858C21.7893 10.9609 22 11.4696 22 12C22 12.5304 21.7893 13.0391 21.4142 13.4142C21.0391 13.7893 20.5304 14 20 14H4C3.46957 14 2.96086 13.7893 2.58579 13.4142C2.21071 13.0391 2 12.5304 2 12ZM2 18C2 17.4696 2.21071 16.9609 2.58579 16.5858C2.96086 16.2107 3.46957 16 4 16H20C20.5304 16 21.0391 16.2107 21.4142 16.5858C21.7893 16.9609 22 17.4696 22 18C22 18.5304 21.7893 19.0391 21.4142 19.4142C21.0391 19.7893 20.5304 20 20 20H4C3.46957 20 2.96086 19.7893 2.58579 19.4142C2.21071 19.0391 2 18.5304 2 18Z"
              fill="#"/>
    </symbol>

    <!-- Menu-sub - num-23 -->
    <symbol id="num-23" viewBox="0 0 24 24">
        <g fill="#">
            <path d="M8 18C8 16.8954 8.89543 16 10 16H20C21.1046 16 22 16.8954 22 18C22 19.1046 21.1046 20 20 20H10C8.89543 20 8 19.1046 8 18Z"/>
            <path d="M8 12C8 10.8954 8.89543 10 10 10H20C21.1046 10 22 10.8954 22 12C22 13.1046 21.1046 14 20 14H10C8.89543 14 8 13.1046 8 12Z"/>
            <path d="M8 6C8 4.89543 8.89543 4 10 4H20C21.1046 4 22 4.89543 22 6C22 7.10457 21.1046 8 20 8H10C8.89543 8 8 7.10457 8 6Z"/>
            <path d="M2 18C2 16.8954 2.89543 16 4 16C5.10457 16 6 16.8954 6 18C6 19.1046 5.10457 20 4 20C2.89543 20 2 19.1046 2 18Z"/>
            <path d="M2 12C2 10.8954 2.89543 10 4 10C5.10457 10 6 10.8954 6 12C6 13.1046 5.10457 14 4 14C2.89543 14 2 13.1046 2 12Z"/>
            <path d="M2 6C2 4.89543 2.89543 4 4 4C5.10457 4 6 4.89543 6 6C6 7.10457 5.10457 8 4 8C2.89543 8 2 7.10457 2 6Z"/>
        </g>
    </symbol>

    <!-- Person - num-24 -->
    <symbol id="num-24" viewBox="0 0 24 24">
        <path d="M14.5984 14.0145C14.4824 13.9781 13.7495 13.6612 14.2075 12.3257H14.2009C15.3947 11.1461 16.307 9.24812 16.307 7.37949C16.307 4.50624 14.3154 3 12.0007 3C9.6846 3 7.70392 4.50554 7.70392 7.37949C7.70392 9.25582 8.61112 11.1615 9.81222 12.3383C10.2804 13.5164 9.44321 13.9536 9.26819 14.0152C6.84412 14.8561 4 16.3889 4 17.9022V18.4695C4 20.5313 8.167 21 12.0233 21C15.8855 21 20 20.5313 20 18.4695V17.9022C20 16.3435 17.142 14.8225 14.5984 14.0145Z"
              fill="#"/>
    </symbol>

    <!-- Phone - num-25 -->
    <symbol id="num-25" viewBox="0 0 24 24">
        <path d="M15.3333 3H8.66667C8.22464 3 7.80072 3.18964 7.48816 3.52721C7.17559 3.86477 7 4.32261 7 4.8V19.2C7 19.6774 7.17559 20.1352 7.48816 20.4728C7.80072 20.8104 8.22464 21 8.66667 21H15.3333C15.7754 21 16.1993 20.8104 16.5118 20.4728C16.8244 20.1352 17 19.6774 17 19.2V4.8C17 4.32261 16.8244 3.86477 16.5118 3.52721C16.1993 3.18964 15.7754 3 15.3333 3ZM12.8333 20.1H11.1667V19.2H12.8333V20.1ZM15.3333 18.3H8.66667V5.7H15.3333V18.3Z"
              fill="#"/>
    </symbol>

    <!-- PHP - num-26 -->
    <symbol id="num-26" viewBox="0 0 24 24">
        <path d="M7.01175 10.2067H6.066L5.55075 12.855H6.39075C6.945 12.855 7.359 12.75 7.63275 12.5392C7.902 12.3322 8.08575 11.9805 8.1795 11.4922C8.2725 11.0235 8.22975 10.6912 8.05875 10.4962C7.8825 10.305 7.5345 10.2075 7.01175 10.2075V10.2067ZM12 5.68799C5.37075 5.68799 0 8.51624 0 12C0 15.4837 5.37075 18.312 12 18.312C18.6292 18.312 24 15.4837 24 12C24 8.51624 18.6292 5.68799 12 5.68799ZM8.73825 13.1407C8.47862 13.3903 8.16615 13.5782 7.824 13.6905C7.488 13.7962 7.059 13.8547 6.53925 13.8547H5.355L5.031 15.5347H3.65175L4.8825 9.21074H7.53075C8.328 9.21074 8.91 9.41774 9.27675 9.83549C9.6405 10.2532 9.75375 10.8397 9.6045 11.5897C9.54865 11.8867 9.44613 12.173 9.30075 12.438C9.15115 12.7004 8.96106 12.9376 8.7375 13.1407H8.73825ZM12.7657 13.8547L13.3088 11.055C13.371 10.7377 13.3477 10.5202 13.2375 10.4017C13.1325 10.2885 12.9015 10.23 12.5505 10.23H11.4608L10.758 13.8547H9.387L10.617 7.52699H11.9843L11.6565 9.21074H12.8752C13.6455 9.21074 14.172 9.34349 14.4615 9.60899C14.7547 9.87899 14.8402 10.3117 14.7277 10.9102L14.1525 13.8555L12.7657 13.8547ZM20.3587 11.5897C20.3046 11.8872 20.202 12.1738 20.055 12.438C19.9068 12.7001 19.7182 12.9373 19.4963 13.1407C19.2343 13.3891 18.9209 13.5768 18.5783 13.6905C18.2423 13.7962 17.8125 13.8547 17.2935 13.8547H16.1138L15.786 15.5347H14.4067L15.6375 9.21074H18.2858C19.083 9.21074 19.665 9.41774 20.0317 9.83999C20.3955 10.254 20.5087 10.8397 20.3595 11.5897H20.3587ZM17.766 10.2067H16.824L16.3088 12.855H17.145C17.703 12.855 18.117 12.75 18.387 12.5392C18.66 12.3322 18.8438 11.9805 18.9382 11.4922C19.0312 11.0235 18.9885 10.6912 18.8123 10.4962C18.6413 10.305 18.2895 10.2075 17.766 10.2075V10.2067Z"
              fill="#"/>
    </symbol>

    <!-- Portfolio - num-27 -->
    <symbol id="num-27" viewBox="0 0 24 24">
        <path d="M20 6H16V4C16 2.89 15.11 2 14 2H10C8.89 2 8 2.89 8 4V6H4C2.89 6 2.01 6.89 2.01 8L2 19C2 20.11 2.89 21 4 21H20C21.11 21 22 20.11 22 19V8C22 6.89 21.11 6 20 6ZM14 6H10V4H14V6Z"
              fill="#"/>
    </symbol>

    <!-- Responsive - num-28 -->
    <symbol id="num-28" viewBox="0 0 24 24">
        <path d="M5.33333 6V16H9.5V12C9.5 11.4696 9.67559 10.9609 9.98816 10.5858C10.3007 10.2107 10.7246 10 11.1667 10H15.3333C15.7754 10 16.1993 10.2107 16.5118 10.5858C16.8244 10.9609 17 11.4696 17 12V16H18.6667V6H5.33333ZM2 20V18H5.33333C4.89131 18 4.46738 17.7893 4.15482 17.4142C3.84226 17.0391 3.66667 16.5304 3.66667 16V6C3.66667 5.46957 3.84226 4.96086 4.15482 4.58579C4.46738 4.21071 4.89131 4 5.33333 4H18.6667C19.1087 4 19.5326 4.21071 19.8452 4.58579C20.1577 4.96086 20.3333 5.46957 20.3333 6V16C20.3333 16.5304 20.1577 17.0391 19.8452 17.4142C19.5326 17.7893 19.1087 18 18.6667 18H22V20H17C17 20.5304 16.8244 21.0391 16.5118 21.4142C16.1993 21.7893 15.7754 22 15.3333 22H11.1667C10.7246 22 10.3007 21.7893 9.98816 21.4142C9.67559 21.0391 9.5 20.5304 9.5 20H2ZM11.5833 20C11.4728 20 11.3668 20.0527 11.2887 20.1464C11.2106 20.2402 11.1667 20.3674 11.1667 20.5C11.1667 20.6326 11.2106 20.7598 11.2887 20.8536C11.3668 20.9473 11.4728 21 11.5833 21C11.6938 21 11.7998 20.9473 11.878 20.8536C11.9561 20.7598 12 20.6326 12 20.5C12 20.3674 11.9561 20.2402 11.878 20.1464C11.7998 20.0527 11.6938 20 11.5833 20ZM14.9167 20C14.8062 20 14.7002 20.0527 14.622 20.1464C14.5439 20.2402 14.5 20.3674 14.5 20.5C14.5 20.6326 14.5439 20.7598 14.622 20.8536C14.7002 20.9473 14.8062 21 14.9167 21C15.0272 21 15.1332 20.9473 15.2113 20.8536C15.2894 20.7598 15.3333 20.6326 15.3333 20.5C15.3333 20.3674 15.2894 20.2402 15.2113 20.1464C15.1332 20.0527 15.0272 20 14.9167 20ZM12.8333 20V21H13.6667V20H12.8333ZM11.1667 12V19H15.3333V12H11.1667Z"
              fill="#"/>
    </symbol>

    <!-- Search - num-29 -->
    <symbol id="num-29" viewBox="0 0 24 24">
        <path d="M10.1226 3C12.0116 3 13.8233 3.75044 15.159 5.08622C16.4947 6.422 17.2452 8.23371 17.2452 10.1228C17.2452 11.6838 16.7428 13.1271 15.8919 14.3013L20.6647 19.0743C20.8711 19.2776 20.991 19.5528 20.9995 19.8424C21.008 20.132 20.9044 20.4137 20.7103 20.6288C20.5162 20.8439 20.2465 20.9758 19.9576 20.997C19.6686 21.0182 19.3826 20.927 19.1593 20.7425L19.0738 20.6653L14.3009 15.8923C13.0864 16.7742 11.6235 17.2481 10.1226 17.2456C8.23355 17.2456 6.4219 16.4952 5.08615 15.1594C3.75041 13.8236 3 12.0119 3 10.1228C3 8.23371 3.75041 6.422 5.08615 5.08622C6.4219 3.75044 8.23355 3 10.1226 3ZM10.1226 5.2493C8.83009 5.2493 7.59053 5.76276 6.6766 6.67672C5.76267 7.59067 5.24923 8.83027 5.24923 10.1228C5.24923 11.4153 5.76267 12.6549 6.6766 13.5689C7.59053 14.4828 8.83009 14.9963 10.1226 14.9963C11.4151 14.9963 12.6546 14.4828 13.5686 13.5689C14.4825 12.6549 14.9959 11.4153 14.9959 10.1228C14.9959 8.83027 14.4825 7.59067 13.5686 6.67672C12.6546 5.76276 11.4151 5.2493 10.1226 5.2493Z"
              fill="#"/>
    </symbol>

    <!-- Skype - num-30 -->
    <symbol id="num-30" viewBox="0 0 24 24">
        <path d="M20.3654 13.5036C20.4577 12.996 20.5072 12.4771 20.5072 11.9583C20.5072 10.8077 20.2821 9.69106 19.8388 8.64206C19.4113 7.6269 18.797 6.7155 18.0161 5.9327C17.2418 5.15446 16.3239 4.5346 15.3135 4.10766C14.2649 3.66324 13.1533 3.43765 12.0056 3.43765C11.4656 3.43765 10.9232 3.48953 10.3967 3.59105C9.66807 3.20399 8.85622 3.0011 8.03163 3C6.68822 3 5.42356 3.52563 4.47395 4.47763C4.00535 4.94498 3.63382 5.50082 3.38083 6.11301C3.12784 6.7252 2.9984 7.3816 3.00001 8.04424C3.00001 8.90149 3.22054 9.74521 3.63234 10.4897C3.54908 10.9724 3.50408 11.4665 3.50408 11.9583C3.50408 13.1088 3.7291 14.2255 4.17241 15.2745C4.59996 16.2896 5.21204 17.201 5.99288 17.9838C6.77373 18.7666 7.68284 19.3802 8.69547 19.8089C9.7441 20.2533 10.8557 20.4789 12.0034 20.4789C12.5029 20.4789 13.0025 20.4338 13.4931 20.3458C14.2469 20.7722 15.0975 21 15.9684 21C17.3118 21 18.5764 20.4766 19.5261 19.5224C20.4779 18.5704 21 17.3025 21 15.9558C21.0022 15.0985 20.7817 14.2525 20.3654 13.5036ZM12.0394 17.1785C9.01951 17.1785 7.66934 15.6896 7.66934 14.5751C7.66934 14.0021 8.09014 13.6028 8.67071 13.6028C9.96237 13.6028 9.62933 15.464 12.0394 15.464C13.2748 15.464 13.9566 14.7917 13.9566 14.1036C13.9566 13.6908 13.7541 13.2306 12.9395 13.0298L10.2527 12.3576C8.09014 11.8139 7.69634 10.6408 7.69634 9.53992C7.69634 7.25241 9.84536 6.39291 11.8639 6.39291C13.7226 6.39291 15.9144 7.42386 15.9144 8.79546C15.9144 9.38426 15.4058 9.7249 14.8252 9.7249C13.7226 9.7249 13.9251 8.19539 11.7041 8.19539C10.6015 8.19539 9.99163 8.6962 9.99163 9.41133C9.99163 10.1265 10.8625 10.3543 11.6186 10.528L13.6078 10.9702C15.7861 11.4575 16.3374 12.732 16.3374 13.9322C16.3374 15.7888 14.913 17.1785 12.0394 17.1785Z"
              fill="#"/>
    </symbol>

    <!-- Slider - num-31 -->
    <symbol id="num-31" viewBox="0 0 24 24">
        <g fill="#">
            <path d="M7.5 14.5001C5.92 14.5001 4.597 15.5601 4.163 17.0001H2V19.0001H4.163C4.597 20.4401 5.92 21.5001 7.5 21.5001C9.08 21.5001 10.403 20.4401 10.837 19.0001H22V17.0001H10.837C10.403 15.5601 9.08 14.5001 7.5 14.5001ZM7.5 19.5001C6.673 19.5001 6 18.8271 6 18.0001C6 17.1731 6.673 16.5001 7.5 16.5001C8.327 16.5001 9 17.1731 9 18.0001C9 18.8271 8.327 19.5001 7.5 19.5001ZM16.5 8.50012C14.92 8.50012 13.597 9.56012 13.163 11.0001H2V13.0001H13.163C13.597 14.4401 14.92 15.5001 16.5 15.5001C18.08 15.5001 19.403 14.4401 19.837 13.0001H22V11.0001H19.837C19.403 9.56012 18.08 8.50012 16.5 8.50012ZM16.5 13.5001C15.673 13.5001 15 12.8271 15 12.0001C15 11.1731 15.673 10.5001 16.5 10.5001C17.327 10.5001 18 11.1731 18 12.0001C18 12.8271 17.327 13.5001 16.5 13.5001Z"/>
            <path d="M12.837 5.00012C12.403 3.56012 11.08 2.50012 9.5 2.50012C7.92 2.50012 6.597 3.56012 6.163 5.00012H2V7.00012H6.163C6.597 8.44012 7.92 9.50012 9.5 9.50012C11.08 9.50012 12.403 8.44012 12.837 7.00012H22.125V5.00012H12.837ZM9.5 7.50012C8.673 7.50012 8 6.82712 8 6.00012C8 5.17312 8.673 4.50012 9.5 4.50012C10.327 4.50012 11 5.17312 11 6.00012C11 6.82712 10.327 7.50012 9.5 7.50012Z"/>
        </g>
    </symbol>

    <!-- Soc-behance - num-32 -->
    <symbol id="num-32" viewBox="0 0 24 24">
        <g fill="#">
            <path d="M15.5399 11.1C14.3787 11.1 14.218 12.2571 14.218 12.2571H16.685C16.685 12.2571 16.7011 11.1 15.5399 11.1Z"/>
            <path d="M9.9428 12.2572H7.75708V14.2661H9.83432C10.1477 14.2581 10.7343 14.1697 10.7343 13.2898C10.7343 12.2452 9.9428 12.2572 9.9428 12.2572Z"/>
            <path d="M12 3C7.02992 3 3 7.02992 3 12C3 16.9701 7.02992 21.0001 12 21.0001C16.9701 21.0001 21.0001 16.9701 21.0001 12C21.0001 7.02992 16.9701 3 12 3ZM13.8965 8.52859H16.9942V9.4527H13.8965V8.52859ZM12.3295 13.3822C12.3295 15.6724 9.94288 15.6 9.94288 15.6H6.03751V8.08662H9.94288C11.1322 8.08662 12.0683 8.74154 12.0683 10.0875C12.0683 11.4335 10.9232 11.5179 10.9232 11.5179C12.434 11.5179 12.3295 13.3822 12.3295 13.3822ZM18.1233 13.2576H14.2299C14.2299 14.6518 15.5518 14.5634 15.5518 14.5634C16.8014 14.5634 16.7572 13.7558 16.7572 13.7558H18.0791C18.0791 15.9014 15.5076 15.7527 15.5076 15.7527C12.4259 15.7527 12.6228 12.8799 12.6228 12.8799C12.6228 12.8799 12.6188 9.99511 15.5076 9.99511C18.5492 9.99913 18.1233 13.2576 18.1233 13.2576Z"/>
            <path d="M10.4732 10.204C10.4732 9.42456 9.9428 9.42456 9.9428 9.42456H7.75708V11.1H9.8062C10.1598 11.1 10.4732 10.9835 10.4732 10.204Z"/>
        </g>
    </symbol>

    <!-- Soc-dribble - num-33 -->
    <symbol id="num-33" viewBox="0 0 24 24">
        <path fill-rule="evenodd" clip-rule="evenodd"
              d="M12 3C7.03146 3 3 7.03146 3 12C3 16.9685 7.03146 21 12 21C16.9588 21 21 16.9685 21 12C21 7.03146 16.9588 3 12 3ZM17.9447 7.14859C19.0184 8.45661 19.6627 10.1258 19.6822 11.9317C19.4284 11.8829 16.8905 11.3655 14.333 11.6876C14.2744 11.5607 14.2256 11.4241 14.167 11.2874C14.0109 10.9165 13.8351 10.5358 13.6594 10.1746C16.4902 9.02278 17.7787 7.36334 17.9447 7.14859ZM12 4.32755C13.9523 4.32755 15.7386 5.05965 17.0954 6.2603C16.9588 6.45553 15.7972 8.0076 13.064 9.03254C11.8048 6.71909 10.4089 4.82538 10.1941 4.53254C10.7701 4.39588 11.3753 4.32755 12 4.32755ZM8.72994 5.04989C8.93492 5.32321 10.3015 7.22669 11.5803 9.49132C7.98807 10.4479 4.81562 10.4284 4.47397 10.4284C4.97179 8.04664 6.58243 6.06508 8.72994 5.04989ZM4.30803 12.0098C4.30803 11.9317 4.30803 11.8536 4.30803 11.7755C4.63991 11.7852 8.36877 11.8341 12.205 10.6822C12.4295 11.1117 12.6345 11.551 12.8297 11.9902C12.7321 12.0195 12.6247 12.0488 12.5271 12.0781C8.564 13.3568 6.45553 16.8514 6.27983 17.1443C5.05965 15.7874 4.30803 13.9816 4.30803 12.0098ZM12 19.692C10.2234 19.692 8.58351 19.0868 7.28524 18.0716C7.42192 17.7885 8.98374 14.782 13.3178 13.269C13.3373 13.2592 13.3471 13.2592 13.3666 13.2495C14.4501 16.051 14.8894 18.4035 15.0065 19.077C14.0792 19.4772 13.064 19.692 12 19.692ZM16.2853 18.3742C16.2072 17.9056 15.7972 15.6605 14.7918 12.8981C17.2028 12.5174 19.3113 13.1421 19.5748 13.2299C19.2429 15.3677 18.013 17.2126 16.2853 18.3742Z"
              fill="#"/>
    </symbol>

    <!-- Soc-facebook - num-34 -->
    <symbol id="num-34" viewBox="0 0 24 24">
        <path fill-rule="evenodd" clip-rule="evenodd"
              d="M3 12.0503C3 16.5251 6.25 20.2458 10.5 21L10.6508 20.8787C10.6006 20.8696 10.5503 20.8601 10.5 20.85V14.5H8.25V12H10.5V10C10.5 7.75 11.95 6.5 14 6.5C14.65 6.5 15.35 6.6 16 6.7V9H14.85C13.75 9 13.5 9.55 13.5 10.25V12H15.9L15.5 14.5H13.5V20.85C13.4497 20.8601 13.3994 20.8696 13.3492 20.8787L13.5 21C17.75 20.2458 21 16.5251 21 12.0503C21 7.07263 16.95 3 12 3C7.05 3 3 7.07263 3 12.0503Z"
              fill="#"/>
    </symbol>

    <!-- Soc-instagram - num-35 -->
    <symbol id="num-35" viewBox="0 0 24 24">
        <path d="M12.0008 3C9.55657 3 9.24982 3.01069 8.28981 3.05438C7.33167 3.09825 6.67766 3.24994 6.10541 3.4725C5.51346 3.70238 5.01133 4.00988 4.51108 4.51031C4.01045 5.01056 3.70294 5.51269 3.47232 6.10444C3.24919 6.67687 3.09731 7.33106 3.05419 8.28881C3.01125 9.24881 3 9.55575 3 12C3 14.4443 3.01088 14.7501 3.05438 15.7101C3.09844 16.6682 3.25013 17.3222 3.47251 17.8944C3.70257 18.4864 4.01007 18.9885 4.51052 19.4888C5.01058 19.9894 5.51271 20.2976 6.10428 20.5275C6.67691 20.7501 7.33111 20.9018 8.28905 20.9456C9.24906 20.9893 9.55563 21 11.9997 21C14.4442 21 14.75 20.9893 15.71 20.9456C16.6681 20.9018 17.3229 20.7501 17.8955 20.5275C18.4873 20.2976 18.9887 19.9894 19.4887 19.4888C19.9894 18.9885 20.2969 18.4864 20.5275 17.8946C20.7487 17.3222 20.9006 16.668 20.9456 15.7103C20.9888 14.7503 21 14.4443 21 12C21 9.55575 20.9888 9.249 20.9456 8.289C20.9006 7.33087 20.7487 6.67687 20.5275 6.10462C20.2969 5.51269 19.9894 5.01056 19.4887 4.51031C18.9881 4.00969 18.4875 3.70219 17.895 3.4725C17.3212 3.24994 16.6668 3.09825 15.7087 3.05438C14.7487 3.01069 14.4431 3 11.998 3H12.0008ZM11.1935 4.62187C11.4331 4.6215 11.7005 4.62187 12.0008 4.62187C14.4039 4.62187 14.6887 4.6305 15.6376 4.67363C16.5151 4.71375 16.9914 4.86038 17.3086 4.98356C17.7287 5.14669 18.0281 5.34169 18.3429 5.65669C18.6579 5.97169 18.8529 6.27169 19.0164 6.69169C19.1396 7.00856 19.2864 7.48481 19.3264 8.36231C19.3695 9.31106 19.3789 9.59606 19.3789 11.9979C19.3789 14.3998 19.3695 14.6848 19.3264 15.6336C19.2862 16.5111 19.1396 16.9873 19.0164 17.3042C18.8533 17.7242 18.6579 18.0233 18.3429 18.3381C18.0279 18.6531 17.7288 18.8481 17.3086 19.0112C16.9918 19.1349 16.5151 19.2812 15.6376 19.3213C14.6889 19.3644 14.4039 19.3738 12.0008 19.3738C9.59763 19.3738 9.31282 19.3644 8.36406 19.3213C7.48655 19.2808 7.01029 19.1342 6.69285 19.011C6.27285 18.8479 5.97284 18.6529 5.65784 18.3379C5.34284 18.0229 5.14783 17.7236 4.98433 17.3034C4.86114 16.9866 4.71433 16.5103 4.67439 15.6328C4.63127 14.6841 4.62264 14.3991 4.62264 11.9957C4.62264 9.59231 4.63127 9.30881 4.67439 8.36006C4.71452 7.48256 4.86114 7.00631 4.98433 6.68906C5.14746 6.26906 5.34284 5.96906 5.65784 5.65406C5.97284 5.33906 6.27285 5.14406 6.69285 4.98056C7.0101 4.85681 7.48655 4.71056 8.36406 4.67025C9.19431 4.63275 9.51607 4.6215 11.1935 4.61963V4.62187ZM16.805 6.11625C16.2088 6.11625 15.725 6.59944 15.725 7.19587C15.725 7.79212 16.2088 8.27588 16.805 8.27588C17.4013 8.27588 17.885 7.79212 17.885 7.19587C17.885 6.59962 17.4013 6.11588 16.805 6.11588V6.11625ZM12.0008 7.37812C9.44838 7.37812 7.37892 9.44756 7.37892 12C7.37892 14.5524 9.44838 16.6209 12.0008 16.6209C14.5533 16.6209 16.622 14.5524 16.622 12C16.622 9.44756 14.5531 7.37812 12.0007 7.37812H12.0008ZM12.0008 9C13.6576 9 15.0009 10.3431 15.0009 12C15.0009 13.6567 13.6576 15 12.0008 15C10.3439 15 9.00081 13.6567 9.00081 12C9.00081 10.3431 10.3439 9 12.0008 9Z"
              fill="#"/>
    </symbol>

    <!-- Soc-twitter - num-36 -->
    <symbol id="num-36" viewBox="0 0 24 24">
        <path fill-rule="evenodd" clip-rule="evenodd"
              d="M18.2606 8.73312C18.267 8.89803 18.2691 9.06289 18.2691 9.2278C18.2691 14.2278 14.7612 20 8.34652 20C6.37604 20 4.54378 19.3703 3 18.2983C3.27289 18.3283 3.55004 18.3509 3.83143 18.3509C5.46523 18.3509 6.97002 17.7435 8.16365 16.7241C6.63759 16.7016 5.34899 15.5996 4.90457 14.1004C5.11792 14.1453 5.33763 14.1679 5.56233 14.1679C5.87916 14.1679 6.18678 14.123 6.48164 14.033C4.88471 13.6882 3.68187 12.159 3.68187 10.3224C3.68187 10.2999 3.68187 10.2924 3.68187 10.2774C4.15252 10.5547 4.69121 10.7271 5.26321 10.7496C4.32617 10.0674 3.71021 8.90552 3.71021 7.59367C3.71021 6.90402 3.88174 6.25181 4.18369 5.6896C5.90326 7.98345 8.47411 9.49022 11.3724 9.64764C11.3129 9.37028 11.2824 9.078 11.2824 8.78564C11.2824 6.69419 12.8439 5 14.7704 5C15.7734 5 16.6792 5.45734 17.315 6.19197C18.111 6.02705 18.8567 5.71223 19.5315 5.27745C19.2699 6.16201 18.7178 6.90398 17.9962 7.36875C18.7022 7.27879 19.3755 7.07655 20 6.7767C19.5315 7.53382 18.9417 8.20088 18.2606 8.73312Z"
              fill="#"/>
    </symbol>

    <!-- Sq-1 - num-37 -->
    <symbol id="num-37" viewBox="0 0 24 24">
        <g fill="#">
            <path d="M3 5.4C3 4.07452 4.07452 3 5.4 3H9.22069C10.5462 3 11.6207 4.07452 11.6207 5.4V9.22069C11.6207 10.5462 10.5462 11.6207 9.22069 11.6207H5.4C4.07452 11.6207 3 10.5462 3 9.22069V5.4Z"/>
            <path fill-rule="evenodd" clip-rule="evenodd" d="M18.5998 3.6H14.7792C13.785 3.6 12.9792 4.40589 12.9792 5.4V9.22069C12.9792 10.2148 13.785 11.0207 14.7792 11.0207H18.5998C19.594 11.0207 20.3998 10.2148 20.3998 9.22069V5.4C20.3998 4.40589 19.594 3.6 18.5998 3.6ZM14.7792 3C13.4537 3 12.3792 4.07452 12.3792 5.4V9.22069C12.3792 10.5462 13.4537 11.6207 14.7792 11.6207H18.5998C19.9253 11.6207 20.9998 10.5462 20.9998 9.22069V5.4C20.9998 4.07452 19.9253 3 18.5998 3H14.7792Z"/>
            <path fill-rule="evenodd" clip-rule="evenodd" d="M9.22069 12.9795H5.4C4.40589 12.9795 3.6 13.7854 3.6 14.7795V18.6002C3.6 19.5943 4.40589 20.4002 5.4 20.4002H9.22069C10.2148 20.4002 11.0207 19.5943 11.0207 18.6002V14.7795C11.0207 13.7854 10.2148 12.9795 9.22069 12.9795ZM5.4 12.3795C4.07452 12.3795 3 13.454 3 14.7795V18.6002C3 19.9257 4.07452 21.0002 5.4 21.0002H9.22069C10.5462 21.0002 11.6207 19.9257 11.6207 18.6002V14.7795C11.6207 13.454 10.5462 12.3795 9.22069 12.3795H5.4Z"/>
            <path fill-rule="evenodd" clip-rule="evenodd" d="M18.5998 12.9795H14.7792C13.785 12.9795 12.9792 13.7854 12.9792 14.7795V18.6002C12.9792 19.5943 13.785 20.4002 14.7792 20.4002H18.5998C19.594 20.4002 20.3998 19.5943 20.3998 18.6002V14.7795C20.3998 13.7854 19.594 12.9795 18.5998 12.9795ZM14.7792 12.3795C13.4537 12.3795 12.3792 13.454 12.3792 14.7795V18.6002C12.3792 19.9257 13.4537 21.0002 14.7792 21.0002H18.5998C19.9253 21.0002 20.9998 19.9257 20.9998 18.6002V14.7795C20.9998 13.454 19.9253 12.3795 18.5998 12.3795H14.7792Z"/>
        </g>
    </symbol>

    <!-- Sq-2 - num-38 -->
    <symbol id="num-38" viewBox="0 0 24 24">
        <g fill="#">
            <path d="M3 5.4C3 4.07452 4.07452 3 5.4 3H9.22069C10.5462 3 11.6207 4.07452 11.6207 5.4V9.22069C11.6207 10.5462 10.5462 11.6207 9.22069 11.6207H5.4C4.07452 11.6207 3 10.5462 3 9.22069V5.4Z"/>
            <path d="M12.3792 5.4C12.3792 4.07452 13.4537 3 14.7792 3H18.5998C19.9253 3 20.9998 4.07452 20.9998 5.4V9.22069C20.9998 10.5462 19.9253 11.6207 18.5998 11.6207H14.7792C13.4537 11.6207 12.3792 10.5462 12.3792 9.22069V5.4Z"/>
            <path fill-rule="evenodd" clip-rule="evenodd" d="M9.22069 12.9795H5.4C4.40589 12.9795 3.6 13.7854 3.6 14.7795V18.6002C3.6 19.5943 4.40589 20.4002 5.4 20.4002H9.22069C10.2148 20.4002 11.0207 19.5943 11.0207 18.6002V14.7795C11.0207 13.7854 10.2148 12.9795 9.22069 12.9795ZM5.4 12.3795C4.07452 12.3795 3 13.454 3 14.7795V18.6002C3 19.9257 4.07452 21.0002 5.4 21.0002H9.22069C10.5462 21.0002 11.6207 19.9257 11.6207 18.6002V14.7795C11.6207 13.454 10.5462 12.3795 9.22069 12.3795H5.4Z"/>
            <path fill-rule="evenodd" clip-rule="evenodd" d="M18.5998 12.9795H14.7792C13.785 12.9795 12.9792 13.7854 12.9792 14.7795V18.6002C12.9792 19.5943 13.785 20.4002 14.7792 20.4002H18.5998C19.594 20.4002 20.3998 19.5943 20.3998 18.6002V14.7795C20.3998 13.7854 19.594 12.9795 18.5998 12.9795ZM14.7792 12.3795C13.4537 12.3795 12.3792 13.454 12.3792 14.7795V18.6002C12.3792 19.9257 13.4537 21.0002 14.7792 21.0002H18.5998C19.9253 21.0002 20.9998 19.9257 20.9998 18.6002V14.7795C20.9998 13.454 19.9253 12.3795 18.5998 12.3795H14.7792Z"/>
        </g>
    </symbol>

    <!-- Sq-3 - num-39 -->
    <symbol id="num-39" viewBox="0 0 24 24">
        <g fill="#">
            <path d="M3 5.4C3 4.07452 4.07452 3 5.4 3H9.22069C10.5462 3 11.6207 4.07452 11.6207 5.4V9.22069C11.6207 10.5462 10.5462 11.6207 9.22069 11.6207H5.4C4.07452 11.6207 3 10.5462 3 9.22069V5.4Z"/>
            <path d="M12.3792 5.4C12.3792 4.07452 13.4537 3 14.7792 3H18.5998C19.9253 3 20.9998 4.07452 20.9998 5.4V9.22069C20.9998 10.5462 19.9253 11.6207 18.5998 11.6207H14.7792C13.4537 11.6207 12.3792 10.5462 12.3792 9.22069V5.4Z"/>
            <path d="M3 14.7795C3 13.454 4.07452 12.3795 5.4 12.3795H9.22069C10.5462 12.3795 11.6207 13.454 11.6207 14.7795V18.6002C11.6207 19.9257 10.5462 21.0002 9.22069 21.0002H5.4C4.07452 21.0002 3 19.9257 3 18.6002V14.7795Z"/>
            <path fill-rule="evenodd" clip-rule="evenodd" d="M18.5998 12.9795H14.7792C13.785 12.9795 12.9792 13.7854 12.9792 14.7795V18.6002C12.9792 19.5943 13.785 20.4002 14.7792 20.4002H18.5998C19.594 20.4002 20.3998 19.5943 20.3998 18.6002V14.7795C20.3998 13.7854 19.594 12.9795 18.5998 12.9795ZM14.7792 12.3795C13.4537 12.3795 12.3792 13.454 12.3792 14.7795V18.6002C12.3792 19.9257 13.4537 21.0002 14.7792 21.0002H18.5998C19.9253 21.0002 20.9998 19.9257 20.9998 18.6002V14.7795C20.9998 13.454 19.9253 12.3795 18.5998 12.3795H14.7792Z"/>
        </g>
    </symbol>

    <!-- Sq-4 - num-40 -->
    <symbol id="num-40" viewBox="0 0 24 24">
        <g fill="#">
            <path d="M3 5.4C3 4.07452 4.07452 3 5.4 3H9.22069C10.5462 3 11.6207 4.07452 11.6207 5.4V9.22069C11.6207 10.5462 10.5462 11.6207 9.22069 11.6207H5.4C4.07452 11.6207 3 10.5462 3 9.22069V5.4Z"/>
            <path d="M12.3792 5.4C12.3792 4.07452 13.4537 3 14.7792 3H18.5998C19.9253 3 20.9998 4.07452 20.9998 5.4V9.22069C20.9998 10.5462 19.9253 11.6207 18.5998 11.6207H14.7792C13.4537 11.6207 12.3792 10.5462 12.3792 9.22069V5.4Z"/>
            <path d="M3 14.7795C3 13.454 4.07452 12.3795 5.4 12.3795H9.22069C10.5462 12.3795 11.6207 13.454 11.6207 14.7795V18.6002C11.6207 19.9257 10.5462 21.0002 9.22069 21.0002H5.4C4.07452 21.0002 3 19.9257 3 18.6002V14.7795Z"/>
            <path d="M12.3792 14.7795C12.3792 13.454 13.4537 12.3795 14.7792 12.3795H18.5998C19.9253 12.3795 20.9998 13.454 20.9998 14.7795V18.6002C20.9998 19.9257 19.9253 21.0002 18.5998 21.0002H14.7792C13.4537 21.0002 12.3792 19.9257 12.3792 18.6002V14.7795Z"/>
        </g>
    </symbol>

    <!-- Star - num-41 -->
    <symbol id="num-41" viewBox="0 0 24 24">
        <path fill-rule="evenodd" clip-rule="evenodd" d="M13.4638 8.71867L12 4.00792L10.5362 8.71867C10.2781 9.54924 9.53791 10.1116 8.70272 10.1116L3.96576 10.1116L7.79804 13.023C8.47372 13.5363 8.75646 14.4462 8.49837 15.2768L7.03457 19.9875L10.8668 17.0761C11.5425 16.5628 12.4575 16.5628 13.1332 17.0761L16.9654 19.9875L15.5016 15.2768C15.2435 14.4462 15.5263 13.5363 16.202 13.023L20.0342 10.1116H15.2973C14.4621 10.1116 13.7219 9.54924 13.4638 8.71867ZM12.9167 3.69645C12.6282 2.76785 11.3718 2.76785 11.0833 3.69645L9.61946 8.40721C9.49042 8.82249 9.12031 9.10366 8.70272 9.10366H3.96576C3.032 9.10366 2.64375 10.3531 3.39919 10.927L7.23147 13.8384C7.56931 14.0951 7.71067 14.55 7.58163 14.9653L6.11783 19.6761C5.82928 20.6047 6.84571 21.3768 7.60115 20.8029L11.4334 17.8915C11.7713 17.6349 12.2287 17.6349 12.5666 17.8915L16.3989 20.8029C17.1543 21.3768 18.1707 20.6047 17.8822 19.676L16.4184 14.9653C16.2893 14.55 16.4307 14.0951 16.7685 13.8384L20.6008 10.927C21.3562 10.3531 20.968 9.10366 20.0342 9.10366H15.2973C14.8797 9.10366 14.5096 8.82249 14.3805 8.40721L12.9167 3.69645Z"
              fill="#"/>
    </symbol>

    <!-- Star-fill - num-42 -->
    <symbol id="num-42" viewBox="0 0 24 24">
        <path d="M11.0489 2.92705C11.3483 2.00574 12.6517 2.00574 12.9511 2.92705L14.4697 7.60081C14.6035 8.01284 14.9875 8.2918 15.4207 8.2918H20.335C21.3037 8.2918 21.7065 9.53141 20.9228 10.1008L16.947 12.9894C16.5966 13.244 16.4499 13.6954 16.5838 14.1074L18.1024 18.7812C18.4017 19.7025 17.3472 20.4686 16.5635 19.8992L12.5878 17.0106C12.2373 16.756 11.7627 16.756 11.4122 17.0106L7.43648 19.8992C6.65276 20.4686 5.59828 19.7025 5.89763 18.7812L7.41623 14.1074C7.55011 13.6954 7.40345 13.244 7.05296 12.9894L3.07722 10.1008C2.29351 9.53141 2.69628 8.2918 3.66501 8.2918H8.57929C9.01252 8.2918 9.39647 8.01284 9.53035 7.60081L11.0489 2.92705Z"
              fill="#"/>
    </symbol>

    <!-- Quotes - num-43 -->
    <symbol id="num-43" viewBox="0 0 24 24">
        <g fill="#">
            <path d="M15 12.75L19.4175 12.75C19.2781 13.6782 18.9467 14.5672 18.4443 15.3601C17.942 16.153 17.2798 16.8325 16.5 17.355L15.1575 18.255L15.9825 19.5L17.325 18.6C18.455 17.8469 19.3817 16.8266 20.0228 15.6295C20.6639 14.4323 20.9995 13.0955 21 11.7375L21 6.75C21 6.35217 20.842 5.97064 20.5607 5.68934C20.2794 5.40803 19.8978 5.25 19.5 5.25L15 5.25C14.6022 5.25 14.2206 5.40803 13.9393 5.68934C13.658 5.97064 13.5 6.35217 13.5 6.75L13.5 11.25C13.5 11.6478 13.658 12.0294 13.9393 12.3107C14.2206 12.592 14.6022 12.75 15 12.75Z"/>
            <path d="M4.50001 12.75L8.9175 12.75C8.77811 13.6782 8.44666 14.5672 7.94431 15.3601C7.44196 16.153 6.77976 16.8325 6 17.355L4.6575 18.255L5.475 19.5L6.825 18.6C7.95504 17.8469 8.88172 16.8266 9.5228 15.6295C10.1639 14.4323 10.4995 13.0955 10.5 11.7375L10.5 6.75C10.5 6.35218 10.342 5.97065 10.0607 5.68934C9.77936 5.40804 9.39783 5.25 9 5.25L4.50001 5.25C4.10218 5.25 3.72065 5.40804 3.43935 5.68934C3.15804 5.97065 3.00001 6.35218 3.00001 6.75L3.00001 11.25C3.00001 11.6478 3.15804 12.0294 3.43935 12.3107C3.72065 12.592 4.10218 12.75 4.50001 12.75Z"/>
        </g>
    </symbol>
</svg>