<svg width="66" height="66" viewBox="0 0 66 66" fill="none" xmlns="http://www.w3.org/2000/svg">
<path d="M19.2823 28.0685H16.6815L15.2646 35.3512H17.5746C19.0987 35.3512 20.2373 35.0625 20.9901 34.4829C21.7305 33.9137 22.2358 32.9463 22.4936 31.6037C22.7494 30.3146 22.6318 29.4009 22.1616 28.8647C21.6769 28.3387 20.7199 28.0706 19.2823 28.0706V28.0685ZM33 15.642C14.7696 15.642 0 23.4197 0 33C0 42.5803 14.7696 50.358 33 50.358C51.2304 50.358 66 42.5803 66 33C66 23.4197 51.2304 15.642 33 15.642ZM24.0302 36.137C23.3162 36.8233 22.4569 37.34 21.516 37.6488C20.592 37.9397 19.4122 38.1005 17.9829 38.1005H14.7262L13.8353 42.7205H10.0423L13.4269 25.3295H20.7096C22.902 25.3295 24.5025 25.8988 25.5111 27.0476C26.5114 28.1964 26.8228 29.8093 26.4124 31.8718C26.2588 32.6886 25.9769 33.4759 25.5771 34.2045C25.1657 34.9261 24.6429 35.5784 24.0281 36.137H24.0302ZM35.1058 38.1005L36.5991 30.4012C36.7703 29.5288 36.7063 28.9307 36.4031 28.6048C36.1144 28.2933 35.4791 28.1325 34.5139 28.1325H31.5171L29.5845 38.1005H25.8142L29.1968 20.6992H32.9567L32.0554 25.3295H35.4069C37.5251 25.3295 38.973 25.6946 39.7691 26.4247C40.5756 27.1672 40.8107 28.3573 40.5013 30.0032L38.9194 38.1026L35.1058 38.1005ZM55.9866 31.8718C55.8377 32.6898 55.5555 33.4779 55.1512 34.2045C54.7437 34.9253 54.2252 35.5775 53.6147 36.137C52.8942 36.82 52.0324 37.3361 51.0902 37.6488C50.1662 37.9397 48.9844 38.1005 47.5571 38.1005H44.3128L43.4115 42.7205H39.6186L43.0031 25.3295H50.2858C52.4783 25.3295 54.0787 25.8988 55.0873 27.06C56.0876 28.1985 56.3991 29.8093 55.9886 31.8718H55.9866ZM48.8565 28.0685H46.266L44.8491 35.3512H47.1488C48.6833 35.3512 49.8218 35.0625 50.5643 34.4829C51.315 33.9137 51.8203 32.9463 52.0802 31.6037C52.3359 30.3146 52.2184 29.4009 51.7337 28.8647C51.2634 28.3387 50.2961 28.0706 48.8565 28.0706V28.0685Z" fill="#41A3D0"/>
</svg>
