<svg width="24" height="24" viewBox="0 0 24 24" fill="none" xmlns="http://www.w3.org/2000/svg">
<path fill-rule="evenodd" clip-rule="evenodd" d="M18.2606 8.73312C18.267 8.89803 18.2691 9.06289 18.2691 9.2278C18.2691 14.2278 14.7612 20 8.34652 20C6.37604 20 4.54378 19.3703 3 18.2983C3.27289 18.3283 3.55004 18.3509 3.83143 18.3509C5.46523 18.3509 6.97002 17.7435 8.16365 16.7241C6.63759 16.7016 5.34899 15.5996 4.90457 14.1004C5.11792 14.1453 5.33763 14.1679 5.56233 14.1679C5.87916 14.1679 6.18678 14.123 6.48164 14.033C4.88471 13.6882 3.68187 12.159 3.68187 10.3224C3.68187 10.2999 3.68187 10.2924 3.68187 10.2774C4.15252 10.5547 4.69121 10.7271 5.26321 10.7496C4.32617 10.0674 3.71021 8.90552 3.71021 7.59367C3.71021 6.90402 3.88174 6.25181 4.18369 5.6896C5.90326 7.98345 8.47411 9.49022 11.3724 9.64764C11.3129 9.37028 11.2824 9.078 11.2824 8.78564C11.2824 6.69419 12.8439 5 14.7704 5C15.7734 5 16.6792 5.45734 17.315 6.19197C18.111 6.02705 18.8567 5.71223 19.5315 5.27745C19.2699 6.16201 18.7178 6.90398 17.9962 7.36875C18.7022 7.27879 19.3755 7.07655 20 6.7767C19.5315 7.53382 18.9417 8.20088 18.2606 8.73312Z" fill="#FFFFFF"/>
</svg>