<svg width="44" height="44" viewBox="0 0 44 44" fill="none" xmlns="http://www.w3.org/2000/svg">
<path d="M8.96296 5.5H12.4259V10.7105H8.96296V5.5ZM15.8889 5.5H19.3519V10.7105H15.8889V5.5ZM22.8148 5.5H26.2778V10.7105H22.8148V5.5ZM33.2037 17.6579H29.7407V15.9211C29.7407 15.4604 29.5583 15.0186 29.2336 14.6929C28.9089 14.3672 28.4685 14.1842 28.0093 14.1842H7.23148C6.77226 14.1842 6.33185 14.3672 6.00714 14.6929C5.68242 15.0186 5.5 15.4604 5.5 15.9211V33.2895C5.5 34.6714 6.04727 35.9967 7.02142 36.9739C7.99556 37.951 9.31679 38.5 10.6944 38.5H24.5463C25.9239 38.5 27.2452 37.951 28.2193 36.9739C29.1935 35.9967 29.7407 34.6714 29.7407 33.2895H33.2037C35.1135 33.2895 36.6667 31.7315 36.6667 29.8158V21.1316C36.6667 19.2158 35.1135 17.6579 33.2037 17.6579ZM29.7407 29.8158V21.1316H33.2037L33.2072 29.8158H29.7407Z" fill="#41A3D0"/>
</svg>
