<svg width="42" height="42" viewBox="0 0 42 42" fill="none" xmlns="http://www.w3.org/2000/svg">
<path d="M26.25 22.3125L33.9806 22.3125C33.7367 23.9369 33.1567 25.4926 32.2775 26.8802C31.3984 28.2678 30.2396 29.4568 28.875 30.3712L26.5256 31.9462L27.9694 34.125L30.3188 32.55C32.2963 31.2321 33.918 29.4465 35.0399 27.3516C36.1618 25.2566 36.7492 22.9171 36.75 20.5406L36.75 11.8125C36.75 11.1163 36.4734 10.4486 35.9812 9.95634C35.4889 9.46406 34.8212 9.1875 34.125 9.1875L26.25 9.1875C25.5538 9.1875 24.8861 9.46406 24.3938 9.95634C23.9016 10.4486 23.625 11.1163 23.625 11.8125L23.625 19.6875C23.625 20.3837 23.9016 21.0514 24.3938 21.5437C24.8861 22.0359 25.5538 22.3125 26.25 22.3125Z" fill="#41A3D0"/>
<path d="M7.87501 22.3125L15.6056 22.3125C15.3617 23.9369 14.7817 25.4926 13.9025 26.8802C13.0234 28.2678 11.8646 29.4568 10.5 30.3713L8.15063 31.9462L9.58125 34.125L11.9438 32.55C13.9213 31.2322 15.543 29.4465 16.6649 27.3516C17.7868 25.2566 18.3742 22.9171 18.375 20.5406L18.375 11.8125C18.375 11.1163 18.0984 10.4486 17.6062 9.95635C17.1139 9.46407 16.4462 9.18751 15.75 9.18751L7.87501 9.18751C7.17881 9.18751 6.51114 9.46407 6.01885 9.95635C5.52657 10.4486 5.25001 11.1163 5.25001 11.8125L5.25001 19.6875C5.25001 20.3837 5.52657 21.0514 6.01885 21.5437C6.51113 22.0359 7.17881 22.3125 7.87501 22.3125Z" fill="#41A3D0"/>
</svg>
