<svg width="98" height="24" viewBox="0 0 98 24" fill="none" xmlns="http://www.w3.org/2000/svg">
<path d="M86.5275 22.4516C84.6863 22.4516 82.9923 22.0011 81.4457 21.1002C79.9175 20.1993 78.7023 18.9533 77.8001 17.3623C76.8979 15.7714 76.4468 13.9791 76.4468 11.9856C76.4468 9.99205 76.8979 8.1998 77.8001 6.60882C78.7023 5.01783 79.9175 3.78147 81.4457 2.89972C82.9923 1.9988 84.6863 1.54834 86.5275 1.54834C88.3687 1.54834 90.0534 1.9988 91.5817 2.89972C93.1099 3.78147 94.3159 5.01783 95.1997 6.60882C96.1019 8.1998 96.553 9.99205 96.553 11.9856C96.553 13.9791 96.1019 15.7714 95.1997 17.3623C94.3159 18.9533 93.1007 20.1993 91.554 21.1002C90.0258 22.0011 88.3503 22.4516 86.5275 22.4516ZM86.5275 16.4998C87.7427 16.4998 88.6817 16.0972 89.3446 15.2921C90.0074 14.4679 90.3388 13.3657 90.3388 11.9856C90.3388 10.5863 90.0074 9.48409 89.3446 8.67901C88.6817 7.85477 87.7427 7.44265 86.5275 7.44265C85.2939 7.44265 84.3456 7.85477 83.6828 8.67901C83.02 9.48409 82.6885 10.5863 82.6885 11.9856C82.6885 13.3657 83.02 14.4679 83.6828 15.2921C84.3456 16.0972 85.2939 16.4998 86.5275 16.4998Z" fill="white"/>
<path fill-rule="evenodd" clip-rule="evenodd" d="M80.7477 22.4565L80.7477 22.4564C78.9985 21.4253 77.5972 19.989 76.5632 18.1657C75.5139 16.3152 75 14.2415 75 11.9856C75 9.72979 75.5139 7.65605 76.5632 5.80558C77.5983 3.98025 79.0025 2.55101 80.7566 1.53832C82.5246 0.509033 84.4571 0 86.5276 0C88.5968 0 90.5218 0.508438 92.2742 1.54017C94.0275 2.55314 95.4233 3.98349 96.4402 5.81157C97.4872 7.66052 98 9.73223 98 11.9856C98 14.239 97.4872 16.3107 96.4402 18.1597C95.4219 19.9904 94.0163 21.4282 92.2491 22.4584C90.4982 23.4898 88.582 24 86.5276 24C84.4561 24 82.5228 23.4905 80.7541 22.4602L80.7477 22.4565ZM91.5542 21.1002C93.1008 20.1993 94.316 18.9534 95.1998 17.3624C96.102 15.7714 96.5531 13.9791 96.5531 11.9856C96.5531 9.9921 96.102 8.19985 95.1998 6.60887C94.316 5.01788 93.11 3.78151 91.5818 2.89976C90.0536 1.99885 88.3688 1.54839 86.5276 1.54839C84.6864 1.54839 82.9925 1.99885 81.4458 2.89976C79.9176 3.78151 78.7024 5.01788 77.8002 6.60887C76.898 8.19985 76.4469 9.9921 76.4469 11.9856C76.4469 13.9791 76.898 15.7714 77.8002 17.3624C78.7024 18.9534 79.9176 20.1993 81.4458 21.1002C82.9925 22.0012 84.6864 22.4516 86.5276 22.4516C88.3504 22.4516 90.0259 22.0012 91.5542 21.1002ZM89.3447 8.67906C88.6819 7.85482 87.7428 7.44269 86.5276 7.44269C85.294 7.44269 84.3458 7.85482 83.6829 8.67906C83.0201 9.48414 82.6887 10.5863 82.6887 11.9856C82.6887 13.3658 83.0201 14.4679 83.6829 15.2922C84.3458 16.0973 85.294 16.4998 86.5276 16.4998C87.7428 16.4998 88.6819 16.0973 89.3447 15.2922C90.0075 14.4679 90.339 13.3658 90.339 11.9856C90.339 10.5863 90.0075 9.48414 89.3447 8.67906ZM88.2536 14.2752C88.6319 13.801 88.8921 13.0922 88.8921 11.9856C88.8921 10.8461 88.6257 10.148 88.2591 9.70267L88.2535 9.6959L88.248 9.68906C87.9141 9.27387 87.4121 8.99108 86.5276 8.99108C85.6168 8.99108 85.1092 9.27919 84.7796 9.68906L84.7741 9.6959L84.7686 9.70267C84.4019 10.148 84.1356 10.8461 84.1356 11.9856C84.1356 13.0922 84.3957 13.8009 84.774 14.2752C85.1006 14.6681 85.6109 14.9514 86.5276 14.9514C87.4183 14.9514 87.923 14.6731 88.2536 14.2752Z" fill="#59A5D8"/>
<path d="M71.4645 22.4516H64.9487L58.0513 11.9409V22.4516H51.5354V1.54834H58.0513L64.9487 12.2361V1.54834H71.4645V22.4516Z" fill="white"/>
<path fill-rule="evenodd" clip-rule="evenodd" d="M73 24H64.1236L59.5867 17.0864V24H50V0H58.884L63.4133 7.01831V0H73V24ZM64.9487 12.2362L58.0513 1.54839H51.5354V22.4516H58.0513V11.941L64.9487 22.4516H71.4646V1.54839H64.9487V12.2362Z" fill="#59A5D8"/>
<path d="M34 0H25V14C25 19 27 24 36.5 24C46 24 48 19 48 14V0H39V13C39 14 39 16 36.5 16C34 16 34 14 34 13V0Z" fill="#59A5D8"/>
<path d="M8 0H0V24H8.5V14.5L14.5 24H23V0H14.5V9.6698L8 0Z" fill="#59A5D8"/>
</svg>
